<svg xmlns="http://www.w3.org/2000/svg" xmlns:xlink="http://www.w3.org/1999/xlink" version="1.1"
  viewBox="0 0 360.000244140625 360">
  <g>
    <path
      d="M35.000244140625,10L105.000244140625,10L105.000244140625,9.9990001Q105.122963140625,9.998999600000001,105.245537140625,9.9929786Q105.368103140625,9.9869571,105.490234140625,9.9749289Q105.612366140625,9.9629002,105.733749140625,9.9448938Q105.855133140625,9.9268866,105.975494140625,9.902945500000001Q106.095856140625,9.8790045,106.214897140625,9.8491859Q106.333938140625,9.8193679,106.451370140625,9.783744800000001Q106.568802140625,9.748121300000001,106.684349140625,9.7067785Q106.799896140625,9.665435800000001,106.913269140625,9.6184735Q107.026649140625,9.571511300000001,107.137588140625,9.519041999999999Q107.248520140625,9.4665732,107.356750140625,9.4087238Q107.464973140625,9.3508749,107.570228140625,9.2877846Q107.675491140625,9.2246947,107.777527140625,9.156516100000001Q107.879562140625,9.0883374,107.978134140625,9.015234Q108.076706140625,8.942130800000001,108.171570140625,8.864279Q108.266434140625,8.786427,108.357361140625,8.7040143Q108.448288140625,8.6216016,108.535065140625,8.5348265Q108.621841140625,8.4480515,108.704254140625,8.3571229Q108.786667140625,8.2661946,108.864517140625,8.1713319Q108.942367140625,8.0764692,109.015472140625,7.9779005000000005Q109.088577140625,7.8793321,109.156753140625,7.7772954Q109.224930140625,7.675258599999999,109.288017140625,7.5699995Q109.351112140625,7.4647403,109.408966140625,7.3565121Q109.466812140625,7.248283900000001,109.519287140625,7.137347699999999Q109.571747140625,7.0264112999999995,109.618713140625,6.9130342Q109.665672140625,6.7996571,109.707016140625,6.6841121Q109.748352140625,6.5685673,109.783981140625,6.4511330000000005Q109.819603140625,6.3336986,109.849426140625,6.2146577999999995Q109.879242140625,6.0956169,109.903183140625,5.97525638Q109.927124140625,5.85489583,109.945129140625,5.73350561Q109.963135140625,5.61211526,109.975174140625,5.48998767Q109.987198140625,5.36786002,109.993225140625,5.2452893Q109.999245140625,5.12271856,109.999245140625,5Q109.999245140625,4.87728144,109.993225140625,4.7547107Q109.987198140625,4.63213998,109.975174140625,4.51001233Q109.963135140625,4.38788474,109.945129140625,4.26649439Q109.927124140625,4.14510417,109.903183140625,4.02474362Q109.879242140625,3.9043831,109.849418140625,3.7853422Q109.819603140625,3.6663014,109.783981140625,3.548867Q109.748352140625,3.4314327000000002,109.707016140625,3.3158878Q109.665672140625,3.2003429,109.618713140625,3.0869657999999998Q109.571747140625,2.9735887,109.519279140625,2.8626523Q109.466812140625,2.7517161,109.408966140625,2.6434879Q109.351112140625,2.53526,109.288025140625,2.4300008Q109.224930140625,2.3247416,109.156753140625,2.2227049Q109.088577140625,2.1206679,109.015472140625,2.0220995Q108.942367140625,1.9235308,108.864517140625,1.8286680999999998Q108.786667140625,1.7338054,108.704254140625,1.6428771000000002Q108.621841140625,1.5519485,108.535065140625,1.4651735000000001Q108.448288140625,1.3783984,108.357361140625,1.2959857000000001Q108.266434140625,1.2135729999999998,108.171570140625,1.1357210000000002Q108.076706140625,1.0578691999999998,107.978134140625,0.9847659999999996Q107.879570140625,0.9116625999999997,107.777534140625,0.8434838999999998Q107.675491140625,0.7753053000000003,107.570236140625,0.7122153999999998Q107.464981140625,0.6491251,107.356750140625,0.5912762000000003Q107.248520140625,0.5334272000000002,107.137588140625,0.4809580000000002Q107.026649140625,0.42848919999999957,106.913269140625,0.3815268999999999Q106.799896140625,0.3345642,106.684349140625,0.2932220000000001Q106.568802140625,0.2518792000000003,106.451370140625,0.2162556999999996Q106.333938140625,0.18063260000000003,106.214897140625,0.15081409999999984Q106.095856140625,0.12099599999999988,105.975494140625,0.0970544999999996Q105.855133140625,0.07311340000000044,105.733749140625,0.05510660000000023Q105.612366140625,0.037099800000000016,105.490234140625,0.025071600000000416Q105.368103140625,0.013043399999999927,105.245537140625,0.007021899999999803Q105.122963140625,0.0010003999999996793,105.000244140625,0.0009999000000000535L105.000244140625,0L35.000244140625,0L35.000244140625,0.0009999000000000535Q34.877525580625,0.0010003999999996793,34.754954840625,0.0070214000000001775Q34.632384120625,0.013042900000000301,34.510256470625,0.025071099999999902Q34.388128880625,0.037099800000000016,34.266738530625,0.055106199999999994Q34.145348310625,0.07311340000000044,34.024987760625,0.0970544999999996Q33.904627240625,0.12099550000000026,33.785586340625,0.15081409999999984Q33.666545540625,0.1806321000000004,33.549111140625,0.21625519999999998Q33.431676840625,0.2518786999999998,33.316131940625,0.2932214999999996Q33.200587040625,0.3345642,33.087209940625,0.38152649999999966Q32.973832840625,0.42848869999999994,32.862896440625,0.4809580000000002Q32.751960240625,0.5334268,32.643732040625,0.5912762000000003Q32.535504140625,0.6491251,32.430244940625,0.7122153999999998Q32.324985740625,0.7753053000000003,32.222949040625,0.8434838999999998Q32.120912040625,0.9116625999999997,32.022343640625,0.9847659999999996Q31.923774940625,1.0578691999999998,31.828912240625,1.1357210000000002Q31.734049540625,1.2135729999999998,31.643121240625,1.2959857000000001Q31.552192640625,1.3783984,31.465417640625,1.4651735000000001Q31.378642540625002,1.5519485,31.296229840625,1.6428771000000002Q31.213817140625,1.7338054,31.135965140625,1.8286680999999998Q31.058113340625,1.9235308,30.985010140625,2.0220995Q30.911906740625,2.1206679,30.843728040625,2.2227046Q30.775549440625,2.3247414,30.712459540624998,2.4300005Q30.649369240625,2.5352597,30.591520340625,2.6434879Q30.533671340625,2.7517161,30.481202140625,2.8626523Q30.428733340625,2.9735887,30.381771040625,3.0869657999999998Q30.334808340625,3.2003429,30.293466140625,3.3158879Q30.252123340625,3.4314327000000002,30.216499840624998,3.548867Q30.180876740625,3.6663014,30.151058240624998,3.7853422Q30.121240140624998,3.9043831,30.097298640625,4.02474362Q30.073357540625,4.14510417,30.055350740625002,4.26649439Q30.037343940625,4.38788474,30.025315740625,4.51001233Q30.013287540625,4.63213998,30.007266040624998,4.7547107Q30.001244540625,4.87728144,30.001244040625,5Q30.001244540625,5.12271856,30.007265540625,5.2452893Q30.013287040625002,5.36786002,30.025315240624998,5.48998767Q30.037343940625,5.61211526,30.055350340625,5.73350561Q30.073357540625,5.85489583,30.097298640625,5.97525638Q30.121239640625,6.0956169,30.151058240624998,6.2146577999999995Q30.180876240625,6.3336986,30.216499340625,6.4511330000000005Q30.252122840625,6.5685673,30.293465640625,6.6841121999999995Q30.334808340625,6.7996571,30.381770640625,6.9130342Q30.428732840625,7.0264112999999995,30.481202140625,7.137347699999999Q30.533670940625,7.248283900000001,30.591520340625,7.3565121Q30.649369240625,7.46474,30.712459540624998,7.5699992Q30.775549440625,7.675258400000001,30.843728040625,7.7772951Q30.911906740625,7.8793321,30.985010140625,7.9779005000000005Q31.058113340625,8.0764692,31.135965140625,8.1713319Q31.213817140625,8.2661946,31.296229840625,8.3571229Q31.378642540625002,8.4480515,31.465417640625,8.5348265Q31.552192640625,8.6216016,31.643121240625,8.7040143Q31.734049540625,8.786427,31.828912240625,8.864279Q31.923774940625,8.942130800000001,32.022343640625,9.015234Q32.120912040625,9.0883374,32.222948740625,9.156516100000001Q32.324985540625,9.2246947,32.430244640625,9.2877846Q32.535503840625,9.3508749,32.643732040625,9.4087238Q32.751960240625,9.4665728,32.862896440625,9.519041999999999Q32.973832840625,9.5715108,33.087209940625,9.6184731Q33.200587040625,9.665435800000001,33.316132040625,9.706778Q33.431676840625,9.748120799999999,33.549111140625,9.7837443Q33.666545540625,9.8193674,33.785586340625,9.8491859Q33.904627240625,9.879004,34.024987760625,9.902945500000001Q34.145348310625,9.9268866,34.266738530625,9.9448934Q34.388128880625,9.9629002,34.510256470625,9.9749284Q34.632384120625,9.9869566,34.754954840625,9.9929781Q34.877525580625,9.998999600000001,35.000244140625,9.9990001L35.000244140625,10Z"
      fill="var(--1-2)" />
    <path
      d="M9.999244240625,35.00001743513L10.000244140625,35.000017438617L10.000000040625,105.000015L9.999000040624999,105.000015Q9.998999640625,105.122734,9.992978140624999,105.2453Q9.986956640625,105.367874,9.974928340624999,105.490005Q9.962900140624999,105.612137,9.944893340625,105.733521Q9.926886540625,105.854904,9.902945540625,105.975266Q9.879004440625,106.095627,9.849185940625,106.214668Q9.819367840624999,106.33371,9.783744840625001,106.451149Q9.748121240625,106.568581,9.706778040625,106.684128Q9.665435840625001,106.799667,9.618473540625,106.91304Q9.571511240625,107.026421,9.519042040625,107.13736Q9.466573240625,107.248291,9.408724340625,107.356522Q9.350874940625001,107.464745,9.287785040625,107.570007Q9.224695240625,107.675262,9.156516040625,107.777298Q9.088336940625,107.879333,9.015234040625,107.977905Q8.942130840625,108.076477,8.864279240625,108.171341Q8.786427540625,108.266197,8.704014740625,108.357124Q8.621602040625,108.448051,8.534826740625,108.534828Q8.448051440625001,108.621605,8.357122940625,108.704025Q8.266194540625,108.786438,8.171331840625001,108.864288Q8.076468940625,108.942139,7.977900540625,109.015236Q7.879332040625,109.088333,7.777295340625,109.156517Q7.675258640625,109.224693,7.569999240625,109.287781Q7.464740240625,109.350876,7.356512340625001,109.40873Q7.248283840625,109.466568,7.137347740625,109.519043Q7.026411540625,109.571503,6.913034340625,109.618469Q6.7996571406249995,109.665428,6.684112340625,109.706772Q6.568567240625,109.748108,6.451133040625,109.783737Q6.333698640625,109.819359,6.214657740625,109.849182Q6.095616940625,109.878998,5.975256440625,109.902939Q5.854895890625,109.92688,5.733505610625,109.944885Q5.612115320625,109.962891,5.489987670625,109.97493Q5.367860020625,109.986954,5.245289300625,109.992981Q5.122718550625,109.999001,5.000000000005,109.999001Q4.877281430625,109.999001,4.754710700625,109.992981Q4.632139980625,109.986954,4.510012330625,109.97493Q4.387884740625,109.962891,4.266494390625,109.944885Q4.145104110625,109.92688,4.024743560625,109.902939Q3.904382940625,109.878998,3.785342140625,109.849174Q3.6663012406249997,109.819359,3.548866940625,109.783737Q3.431432740625,109.748108,3.315887940625,109.706772Q3.200342940625,109.665428,3.086965840625,109.618469Q2.973588740625,109.571503,2.862652540625,109.519035Q2.751716140625,109.466568,2.643488140625,109.408722Q2.535260240625,109.350868,2.430000740625,109.287781Q2.324741840625,109.224686,2.222704840625,109.156509Q2.120668140625,109.088333,2.022099540625,109.015228Q1.923531040625,108.942123,1.828668140625,108.864273Q1.733805640625,108.786423,1.642877140625,108.70401Q1.5519485406250002,108.621597,1.465173440625,108.534821Q1.3783984406249998,108.448044,1.295985740625,108.357117Q1.2135729406250002,108.26619,1.1357212406250001,108.171326Q1.0578694406250002,108.076462,0.9847660406249998,107.97789Q0.9116630406250001,107.879326,0.8434839406250001,107.77729Q0.7753052406250003,107.675247,0.7122154406250001,107.569992Q0.6491251406250003,107.464737,0.5912761406250002,107.356506Q0.5334272406249996,107.248276,0.4809579406250002,107.137344Q0.4284892406249998,107.026405,0.38152694062500014,106.913025Q0.33456424062500023,106.799652,0.29322194062500007,106.684105Q0.25187874062500004,106.568558,0.21625564062499958,106.451126Q0.18063264062500028,106.333694,0.15081454062500033,106.214653Q0.12099644062500037,106.095612,0.09705494062500009,105.97525Q0.07311394062500032,105.854889,0.055107140625000106,105.733505Q0.03710084062500041,105.612122,0.02507164062499978,105.48999Q0.013042940624999666,105.367859,0.00702144062500043,105.245293Q0.0009994406249997922,105.122719,0.0009999406250003062,105L4.06250002527031e-8,104.999985L0.000244140625,34.999982561383L0.0012440406250000535,34.99998256487Q0.0012445406249996793,34.87726428,0.007266040624999803,34.75469384Q0.013288040625000441,34.63212341,0.025316740624999667,34.50999606Q0.037345840625000015,34.38786876,0.05535264062500023,34.26647878Q0.07335944062500044,34.14508879,0.09730144062500035,34.02472854Q0.12124304062500002,33.9043684,0.1510615406250002,33.7853279Q0.1808800406250004,33.6662874,0.2165036406249996,33.5488534Q0.2521276406249999,33.4314194,0.2934703406250003,33.3158748Q0.3348131406250001,33.2003304,0.38177584062500003,33.0869536Q0.4287386406250002,32.973576800000004,0.4812073406249997,32.8626409Q0.5336761406250004,32.7517047,0.5915255406249997,32.643477Q0.649374940625,32.5352492,0.7124648406249996,32.4299903Q0.7755546406249998,32.3247316,0.8437337406249998,32.2226954Q0.9119129406250002,32.1206589,0.9850158406249996,32.0220909Q1.0581193406249998,31.9235227,1.1359710406249999,31.828660499999998Q1.2138228406249998,31.733798,1.296235840625,31.6428699Q1.378648740625,31.5519419,1.4654238406250002,31.4651673Q1.552198840625,31.3783927,1.6431274406249998,31.2959802Q1.734055540625,31.2135677,1.8289182406250002,31.135716Q1.923780940625,31.0578647,2.022349340625,30.9847617Q2.120917540625,30.9116583,2.222954240625,30.8434801Q2.324990740625,30.7753019,2.430249740625,30.7122116Q2.535508840625,30.6491222,2.643736840625,30.5912733Q2.751964840625,30.5334244,2.862900940625,30.4809556Q2.973836940625,30.4284868,3.0872140406249997,30.3815246Q3.200590940625,30.3345623,3.316135640625,30.293219999999998Q3.431680240625,30.2518778,3.5491142406250002,30.2162542Q3.666548440625,30.180631599999998,3.785588940625,30.1508131Q3.904629540625,30.1209955,4.024989840625,30.097054Q4.145350100625,30.073113,4.266740140625,30.055106600000002Q4.388130190625,30.0370998,4.510257540625,30.0250716Q4.632384930625,30.0130434,4.754955380625,30.007021899999998Q4.877525860625,30.0010004,5.000244140625,30.0009999Q5.122962700625,30.0010004,5.245533440625,30.0070214Q5.368104160625,30.013042900000002,5.490231810625,30.025071099999998Q5.612359400625,30.0370998,5.733749750625,30.0551062Q5.855139970625,30.0731134,5.975500520625,30.0970545Q6.095861040625,30.1209955,6.2149019406249995,30.150814099999998Q6.333942740625,30.1806321,6.4513771406250005,30.2162552Q6.568811440625,30.2518787,6.6843563406249995,30.2932215Q6.799901240625,30.3345642,6.913278340625,30.3815265Q7.0266554406249995,30.4284887,7.137591840624999,30.480958Q7.248528040625001,30.5334268,7.356756240625,30.5912762Q7.464984140625,30.6491251,7.570243340625,30.712215399999998Q7.675502540625001,30.7753053,7.777539240625,30.8434839Q7.879576240625,30.9116626,7.9781446406250005,30.984766Q8.076713340625,31.0578692,8.171576040625,31.135721Q8.266438740625,31.213573,8.357367040625,31.2959857Q8.448295640625,31.378398400000002,8.535070640625,31.4651735Q8.621845740625,31.5519485,8.704258440625,31.6428771Q8.786671140625,31.7338054,8.864523140625,31.8286681Q8.942374940625001,31.9235308,9.015478140625,32.0220995Q9.088581540625,32.1206679,9.156760240625001,32.2227046Q9.224938840625,32.3247414,9.288028740625,32.4300005Q9.351119040625,32.5352597,9.408967940625,32.6434879Q9.466816940625,32.7517161,9.519286140624999,32.8626523Q9.571754940625,32.9735887,9.618717240625,33.0869658Q9.665679940625001,33.2003429,9.707022140625,33.3158879Q9.748364940624999,33.4314327,9.783988440625,33.548867Q9.819611540625,33.6663014,9.849430040625,33.7853422Q9.879248140625,33.9043831,9.903189640625001,34.02474362Q9.927130740625,34.14510417,9.945137540625,34.26649439Q9.963144340625,34.38788474,9.975172540625,34.51001233Q9.987200740625,34.63213998,9.993222240625,34.7547107Q9.999243740625001,34.87728144,9.999244240625,35L9.999244240625,35.00001743513Z"
      fill="var(--1-1)" />
    <rect x="20.000244140625" y="20" width="100" height="100" rx="15" fill="var(--1-0, #292929)" />
  </g>
  <g>
    <path
      d="M145.000244140625,10L215.000244140625,10L215.000244140625,9.9990001Q215.12296314062502,9.998999600000001,215.245537140625,9.9929786Q215.368103140625,9.9869571,215.490234140625,9.9749289Q215.612366140625,9.9629002,215.73374914062498,9.9448938Q215.85513314062501,9.9268866,215.97549414062502,9.902945500000001Q216.09585614062502,9.8790045,216.214897140625,9.8491859Q216.33393814062498,9.8193679,216.451370140625,9.783744800000001Q216.568802140625,9.748121300000001,216.684349140625,9.7067785Q216.79989614062498,9.665435800000001,216.913269140625,9.6184735Q217.026649140625,9.571511300000001,217.13758814062498,9.519041999999999Q217.248520140625,9.4665732,217.356750140625,9.4087238Q217.464973140625,9.3508749,217.570228140625,9.2877846Q217.675491140625,9.2246947,217.777527140625,9.156516100000001Q217.879562140625,9.0883374,217.978134140625,9.015234Q218.076706140625,8.942130800000001,218.171570140625,8.864279Q218.266434140625,8.786427,218.35736114062502,8.7040143Q218.44828814062498,8.6216016,218.535065140625,8.5348265Q218.621841140625,8.4480515,218.70425414062498,8.3571229Q218.786667140625,8.2661946,218.864517140625,8.1713319Q218.94236714062498,8.0764692,219.01547214062498,7.9779005000000005Q219.088577140625,7.8793321,219.156753140625,7.7772954Q219.22493014062502,7.675258599999999,219.28801714062502,7.5699995Q219.351112140625,7.4647403,219.408966140625,7.3565121Q219.466812140625,7.248283900000001,219.519287140625,7.137347699999999Q219.571747140625,7.0264112999999995,219.618713140625,6.9130342Q219.66567214062502,6.7996571,219.707016140625,6.6841121Q219.748352140625,6.5685673,219.783981140625,6.4511330000000005Q219.81960314062502,6.3336986,219.84942614062498,6.2146577999999995Q219.879242140625,6.0956169,219.903183140625,5.97525638Q219.92712414062498,5.85489583,219.945129140625,5.73350561Q219.963135140625,5.61211526,219.975174140625,5.48998767Q219.987198140625,5.36786002,219.993225140625,5.2452893Q219.99924514062502,5.12271856,219.99924514062502,5Q219.99924514062502,4.87728144,219.993225140625,4.7547107Q219.987198140625,4.63213998,219.975174140625,4.51001233Q219.963135140625,4.38788474,219.945129140625,4.26649439Q219.92712414062498,4.14510417,219.903183140625,4.02474362Q219.879242140625,3.9043831,219.849418140625,3.7853422Q219.81960314062502,3.6663014,219.783981140625,3.548867Q219.748352140625,3.4314327000000002,219.707016140625,3.3158878Q219.66567214062502,3.2003429,219.618713140625,3.0869657999999998Q219.571747140625,2.9735887,219.519279140625,2.8626523Q219.466812140625,2.7517161,219.408966140625,2.6434879Q219.351112140625,2.53526,219.288025140625,2.4300008Q219.22493014062502,2.3247416,219.156753140625,2.2227049Q219.088577140625,2.1206679,219.01547214062498,2.0220995Q218.94236714062498,1.9235308,218.864517140625,1.8286680999999998Q218.786667140625,1.7338054,218.70425414062498,1.6428771000000002Q218.621841140625,1.5519485,218.535065140625,1.4651735000000001Q218.44828814062498,1.3783984,218.35736114062502,1.2959857000000001Q218.266434140625,1.2135729999999998,218.171570140625,1.1357210000000002Q218.076706140625,1.0578691999999998,217.978134140625,0.9847659999999996Q217.879570140625,0.9116625999999997,217.777534140625,0.8434838999999998Q217.675491140625,0.7753053000000003,217.570236140625,0.7122153999999998Q217.464981140625,0.6491251,217.356750140625,0.5912762000000003Q217.248520140625,0.5334272000000002,217.13758814062498,0.4809580000000002Q217.026649140625,0.42848919999999957,216.913269140625,0.3815268999999999Q216.79989614062498,0.3345642,216.684349140625,0.2932220000000001Q216.568802140625,0.2518792000000003,216.451370140625,0.2162556999999996Q216.33393814062498,0.18063260000000003,216.214897140625,0.15081409999999984Q216.09585614062502,0.12099599999999988,215.97549414062502,0.0970544999999996Q215.85513314062501,0.07311340000000044,215.73374914062498,0.05510660000000023Q215.612366140625,0.037099800000000016,215.490234140625,0.025071600000000416Q215.368103140625,0.013043399999999927,215.245537140625,0.007021899999999803Q215.12296314062502,0.0010003999999996793,215.000244140625,0.0009999000000000535L215.000244140625,0L145.000244140625,0L145.000244140625,0.0009999000000000535Q144.877525580625,0.0010003999999996793,144.754954840625,0.0070214000000001775Q144.632384120625,0.013042900000000301,144.510256470625,0.025071099999999902Q144.388128880625,0.037099800000000016,144.266738530625,0.055106199999999994Q144.145348310625,0.07311340000000044,144.024987760625,0.0970544999999996Q143.904627240625,0.12099550000000026,143.785586340625,0.15081409999999984Q143.666545540625,0.1806321000000004,143.549111140625,0.21625519999999998Q143.431676840625,0.2518786999999998,143.316131940625,0.2932214999999996Q143.200587040625,0.3345642,143.087209940625,0.38152649999999966Q142.973832840625,0.42848869999999994,142.862896440625,0.4809580000000002Q142.751960240625,0.5334268,142.643732040625,0.5912762000000003Q142.535504140625,0.6491251,142.430244940625,0.7122153999999998Q142.324985740625,0.7753053000000003,142.222949040625,0.8434838999999998Q142.120912040625,0.9116625999999997,142.022343640625,0.9847659999999996Q141.923774940625,1.0578691999999998,141.828912240625,1.1357210000000002Q141.734049540625,1.2135729999999998,141.643121240625,1.2959857000000001Q141.552192640625,1.3783984,141.465417640625,1.4651735000000001Q141.378642540625,1.5519485,141.296229840625,1.6428771000000002Q141.213817140625,1.7338054,141.135965140625,1.8286680999999998Q141.058113340625,1.9235308,140.985010140625,2.0220995Q140.911906740625,2.1206679,140.843728040625,2.2227046Q140.775549440625,2.3247414,140.712459540625,2.4300005Q140.649369240625,2.5352597,140.591520340625,2.6434879Q140.533671340625,2.7517161,140.481202140625,2.8626523Q140.428733340625,2.9735887,140.381771040625,3.0869657999999998Q140.334808340625,3.2003429,140.29346614062501,3.3158879Q140.252123340625,3.4314327000000002,140.216499840625,3.548867Q140.180876740625,3.6663014,140.151058240625,3.7853422Q140.121240140625,3.9043831,140.097298640625,4.02474362Q140.073357540625,4.14510417,140.055350740625,4.26649439Q140.037343940625,4.38788474,140.025315740625,4.51001233Q140.013287540625,4.63213998,140.007266040625,4.7547107Q140.001244540625,4.87728144,140.001244040625,5Q140.001244540625,5.12271856,140.007265540625,5.2452893Q140.013287040625,5.36786002,140.025315240625,5.48998767Q140.037343940625,5.61211526,140.055350340625,5.73350561Q140.073357540625,5.85489583,140.097298640625,5.97525638Q140.121239640625,6.0956169,140.151058240625,6.2146577999999995Q140.180876240625,6.3336986,140.216499340625,6.4511330000000005Q140.252122840625,6.5685673,140.293465640625,6.6841121999999995Q140.334808340625,6.7996571,140.381770640625,6.9130342Q140.428732840625,7.0264112999999995,140.481202140625,7.137347699999999Q140.533670940625,7.248283900000001,140.591520340625,7.3565121Q140.649369240625,7.46474,140.712459540625,7.5699992Q140.775549440625,7.675258400000001,140.843728040625,7.7772951Q140.911906740625,7.8793321,140.985010140625,7.9779005000000005Q141.058113340625,8.0764692,141.135965140625,8.1713319Q141.213817140625,8.2661946,141.296229840625,8.3571229Q141.378642540625,8.4480515,141.465417640625,8.5348265Q141.552192640625,8.6216016,141.643121240625,8.7040143Q141.734049540625,8.786427,141.828912240625,8.864279Q141.923774940625,8.942130800000001,142.022343640625,9.015234Q142.120912040625,9.0883374,142.222948740625,9.156516100000001Q142.324985540625,9.2246947,142.430244640625,9.2877846Q142.535503840625,9.3508749,142.643732040625,9.4087238Q142.751960240625,9.4665728,142.862896440625,9.519041999999999Q142.973832840625,9.5715108,143.087209940625,9.6184731Q143.200587040625,9.665435800000001,143.316132040625,9.706778Q143.431676840625,9.748120799999999,143.549111140625,9.7837443Q143.666545540625,9.8193674,143.785586340625,9.8491859Q143.904627240625,9.879004,144.024987760625,9.902945500000001Q144.145348310625,9.9268866,144.266738530625,9.9448934Q144.388128880625,9.9629002,144.510256470625,9.9749284Q144.632384120625,9.9869566,144.754954840625,9.9929781Q144.877525580625,9.998999600000001,145.000244140625,9.9990001L145.000244140625,10Z"
      fill="var(--2-2)" />
    <rect x="130.000244140625" y="20" width="100" height="100" rx="15" fill="var(--2-0, #292929)" />
  </g>
  <g>
    <path
      d="M255.000244140625,10L325.000244140625,10L325.000244140625,9.9990001Q325.122963140625,9.998999600000001,325.245537140625,9.9929786Q325.368103140625,9.9869571,325.49023414062503,9.9749289Q325.612366140625,9.9629002,325.733749140625,9.9448938Q325.855133140625,9.9268866,325.975494140625,9.902945500000001Q326.095856140625,9.8790045,326.214897140625,9.8491859Q326.333938140625,9.8193679,326.451370140625,9.783744800000001Q326.568802140625,9.748121300000001,326.684349140625,9.7067785Q326.799896140625,9.665435800000001,326.913269140625,9.6184735Q327.026649140625,9.571511300000001,327.137588140625,9.519041999999999Q327.24852014062503,9.4665732,327.35675014062497,9.4087238Q327.46497314062503,9.3508749,327.570228140625,9.2877846Q327.675491140625,9.2246947,327.777527140625,9.156516100000001Q327.879562140625,9.0883374,327.978134140625,9.015234Q328.076706140625,8.942130800000001,328.171570140625,8.864279Q328.266434140625,8.786427,328.357361140625,8.7040143Q328.448288140625,8.6216016,328.53506514062497,8.5348265Q328.621841140625,8.4480515,328.704254140625,8.3571229Q328.786667140625,8.2661946,328.864517140625,8.1713319Q328.942367140625,8.0764692,329.015472140625,7.9779005000000005Q329.08857714062503,7.8793321,329.156753140625,7.7772954Q329.224930140625,7.675258599999999,329.288017140625,7.5699995Q329.351112140625,7.4647403,329.408966140625,7.3565121Q329.466812140625,7.248283900000001,329.519287140625,7.137347699999999Q329.571747140625,7.0264112999999995,329.618713140625,6.9130342Q329.665672140625,6.7996571,329.707016140625,6.6841121Q329.748352140625,6.5685673,329.783981140625,6.4511330000000005Q329.819603140625,6.3336986,329.849426140625,6.2146577999999995Q329.879242140625,6.0956169,329.903183140625,5.97525638Q329.927124140625,5.85489583,329.945129140625,5.73350561Q329.963135140625,5.61211526,329.975174140625,5.48998767Q329.98719814062497,5.36786002,329.993225140625,5.2452893Q329.999245140625,5.12271856,329.999245140625,5Q329.999245140625,4.87728144,329.993225140625,4.7547107Q329.98719814062497,4.63213998,329.975174140625,4.51001233Q329.963135140625,4.38788474,329.945129140625,4.26649439Q329.927124140625,4.14510417,329.903183140625,4.02474362Q329.879242140625,3.9043831,329.849418140625,3.7853422Q329.819603140625,3.6663014,329.783981140625,3.548867Q329.748352140625,3.4314327000000002,329.707016140625,3.3158878Q329.665672140625,3.2003429,329.618713140625,3.0869657999999998Q329.571747140625,2.9735887,329.51927914062503,2.8626523Q329.466812140625,2.7517161,329.408966140625,2.6434879Q329.351112140625,2.53526,329.288025140625,2.4300008Q329.224930140625,2.3247416,329.156753140625,2.2227049Q329.08857714062503,2.1206679,329.015472140625,2.0220995Q328.942367140625,1.9235308,328.864517140625,1.8286680999999998Q328.786667140625,1.7338054,328.704254140625,1.6428771000000002Q328.621841140625,1.5519485,328.53506514062497,1.4651735000000001Q328.448288140625,1.3783984,328.357361140625,1.2959857000000001Q328.266434140625,1.2135729999999998,328.171570140625,1.1357210000000002Q328.076706140625,1.0578691999999998,327.978134140625,0.9847659999999996Q327.879570140625,0.9116625999999997,327.777534140625,0.8434838999999998Q327.675491140625,0.7753053000000003,327.570236140625,0.7122153999999998Q327.464981140625,0.6491251,327.35675014062497,0.5912762000000003Q327.24852014062503,0.5334272000000002,327.137588140625,0.4809580000000002Q327.026649140625,0.42848919999999957,326.913269140625,0.3815268999999999Q326.799896140625,0.3345642,326.684349140625,0.2932220000000001Q326.568802140625,0.2518792000000003,326.451370140625,0.2162556999999996Q326.333938140625,0.18063260000000003,326.214897140625,0.15081409999999984Q326.095856140625,0.12099599999999988,325.975494140625,0.0970544999999996Q325.855133140625,0.07311340000000044,325.733749140625,0.05510660000000023Q325.612366140625,0.037099800000000016,325.49023414062503,0.025071600000000416Q325.368103140625,0.013043399999999927,325.245537140625,0.007021899999999803Q325.122963140625,0.0010003999999996793,325.000244140625,0.0009999000000000535L325.000244140625,0L255.000244140625,0L255.000244140625,0.0009999000000000535Q254.877525580625,0.0010003999999996793,254.754954840625,0.0070214000000001775Q254.632384120625,0.013042900000000301,254.510256470625,0.025071099999999902Q254.388128880625,0.037099800000000016,254.266738530625,0.055106199999999994Q254.145348310625,0.07311340000000044,254.024987760625,0.0970544999999996Q253.904627240625,0.12099550000000026,253.785586340625,0.15081409999999984Q253.666545540625,0.1806321000000004,253.549111140625,0.21625519999999998Q253.431676840625,0.2518786999999998,253.316131940625,0.2932214999999996Q253.200587040625,0.3345642,253.087209940625,0.38152649999999966Q252.973832840625,0.42848869999999994,252.862896440625,0.4809580000000002Q252.751960240625,0.5334268,252.643732040625,0.5912762000000003Q252.535504140625,0.6491251,252.430244940625,0.7122153999999998Q252.324985740625,0.7753053000000003,252.222949040625,0.8434838999999998Q252.120912040625,0.9116625999999997,252.022343640625,0.9847659999999996Q251.923774940625,1.0578691999999998,251.828912240625,1.1357210000000002Q251.734049540625,1.2135729999999998,251.643121240625,1.2959857000000001Q251.552192640625,1.3783984,251.465417640625,1.4651735000000001Q251.378642540625,1.5519485,251.296229840625,1.6428771000000002Q251.213817140625,1.7338054,251.135965140625,1.8286680999999998Q251.058113340625,1.9235308,250.985010140625,2.0220995Q250.911906740625,2.1206679,250.843728040625,2.2227046Q250.775549440625,2.3247414,250.712459540625,2.4300005Q250.649369240625,2.5352597,250.591520340625,2.6434879Q250.533671340625,2.7517161,250.481202140625,2.8626523Q250.428733340625,2.9735887,250.381771040625,3.0869657999999998Q250.334808340625,3.2003429,250.29346614062501,3.3158879Q250.252123340625,3.4314327000000002,250.216499840625,3.548867Q250.180876740625,3.6663014,250.151058240625,3.7853422Q250.121240140625,3.9043831,250.097298640625,4.02474362Q250.073357540625,4.14510417,250.055350740625,4.26649439Q250.037343940625,4.38788474,250.025315740625,4.51001233Q250.013287540625,4.63213998,250.007266040625,4.7547107Q250.001244540625,4.87728144,250.001244040625,5Q250.001244540625,5.12271856,250.007265540625,5.2452893Q250.013287040625,5.36786002,250.025315240625,5.48998767Q250.037343940625,5.61211526,250.055350340625,5.73350561Q250.073357540625,5.85489583,250.097298640625,5.97525638Q250.121239640625,6.0956169,250.151058240625,6.2146577999999995Q250.180876240625,6.3336986,250.216499340625,6.4511330000000005Q250.252122840625,6.5685673,250.293465640625,6.6841121999999995Q250.334808340625,6.7996571,250.381770640625,6.9130342Q250.428732840625,7.0264112999999995,250.481202140625,7.137347699999999Q250.533670940625,7.248283900000001,250.591520340625,7.3565121Q250.649369240625,7.46474,250.712459540625,7.5699992Q250.775549440625,7.675258400000001,250.843728040625,7.7772951Q250.911906740625,7.8793321,250.985010140625,7.9779005000000005Q251.058113340625,8.0764692,251.135965140625,8.1713319Q251.213817140625,8.2661946,251.296229840625,8.3571229Q251.378642540625,8.4480515,251.465417640625,8.5348265Q251.552192640625,8.6216016,251.643121240625,8.7040143Q251.734049540625,8.786427,251.828912240625,8.864279Q251.923774940625,8.942130800000001,252.022343640625,9.015234Q252.120912040625,9.0883374,252.222948740625,9.156516100000001Q252.324985540625,9.2246947,252.430244640625,9.2877846Q252.535503840625,9.3508749,252.643732040625,9.4087238Q252.751960240625,9.4665728,252.862896440625,9.519041999999999Q252.973832840625,9.5715108,253.087209940625,9.6184731Q253.200587040625,9.665435800000001,253.316132040625,9.706778Q253.431676840625,9.748120799999999,253.549111140625,9.7837443Q253.666545540625,9.8193674,253.785586340625,9.8491859Q253.904627240625,9.879004,254.024987760625,9.902945500000001Q254.145348310625,9.9268866,254.266738530625,9.9448934Q254.388128880625,9.9629002,254.510256470625,9.9749284Q254.632384120625,9.9869566,254.754954840625,9.9929781Q254.877525580625,9.998999600000001,255.000244140625,9.9990001L255.000244140625,10Z"
      fill="var(--3-2)" />
    <path
      d="M359.999244240625,35.00001743513L360.000244140625,35.000017438617L360.000000040625,105.000015L359.999000040625,105.000015Q359.998999640625,105.122734,359.992978140625,105.2453Q359.986956640625,105.367874,359.974928340625,105.490005Q359.962900140625,105.612137,359.944893340625,105.733521Q359.926886540625,105.854904,359.902945540625,105.975266Q359.879004440625,106.095627,359.849185940625,106.214668Q359.819367840625,106.33371,359.783744840625,106.451149Q359.748121240625,106.568581,359.706778040625,106.684128Q359.665435840625,106.799667,359.618473540625,106.91304Q359.571511240625,107.026421,359.519042040625,107.13736Q359.466573240625,107.248291,359.408724340625,107.356522Q359.350874940625,107.464745,359.287785040625,107.570007Q359.224695240625,107.675262,359.156516040625,107.777298Q359.088336940625,107.879333,359.015234040625,107.977905Q358.942130840625,108.076477,358.864279240625,108.171341Q358.786427540625,108.266197,358.704014740625,108.357124Q358.621602040625,108.448051,358.534826740625,108.534828Q358.448051440625,108.621605,358.357122940625,108.704025Q358.266194540625,108.786438,358.171331840625,108.864288Q358.076468940625,108.942139,357.977900540625,109.015236Q357.879332040625,109.088333,357.777295340625,109.156517Q357.675258640625,109.224693,357.569999240625,109.287781Q357.464740240625,109.350876,357.356512340625,109.40873Q357.248283840625,109.466568,357.137347740625,109.519043Q357.026411540625,109.571503,356.913034340625,109.618469Q356.799657140625,109.665428,356.684112340625,109.706772Q356.568567240625,109.748108,356.451133040625,109.783737Q356.333698640625,109.819359,356.214657740625,109.849182Q356.095616940625,109.878998,355.975256440625,109.902939Q355.854895890625,109.92688,355.733505610625,109.944885Q355.612115320625,109.962891,355.489987670625,109.97493Q355.367860020625,109.986954,355.245289300625,109.992981Q355.122718550625,109.999001,355.000000000005,109.999001Q354.877281430625,109.999001,354.754710700625,109.992981Q354.632139980625,109.986954,354.510012330625,109.97493Q354.387884740625,109.962891,354.266494390625,109.944885Q354.145104110625,109.92688,354.024743560625,109.902939Q353.904382940625,109.878998,353.785342140625,109.849174Q353.666301240625,109.819359,353.548866940625,109.783737Q353.431432740625,109.748108,353.315887940625,109.706772Q353.200342940625,109.665428,353.086965840625,109.618469Q352.973588740625,109.571503,352.862652540625,109.519035Q352.751716140625,109.466568,352.643488140625,109.408722Q352.535260240625,109.350868,352.430000740625,109.287781Q352.324741840625,109.224686,352.222704840625,109.156509Q352.120668140625,109.088333,352.022099540625,109.015228Q351.923531040625,108.942123,351.828668140625,108.864273Q351.733805640625,108.786423,351.642877140625,108.70401Q351.551948540625,108.621597,351.465173440625,108.534821Q351.378398440625,108.448044,351.295985740625,108.357117Q351.213572940625,108.26619,351.135721240625,108.171326Q351.057869440625,108.076462,350.984766040625,107.97789Q350.911663040625,107.879326,350.843483940625,107.77729Q350.775305240625,107.675247,350.712215440625,107.569992Q350.649125140625,107.464737,350.591276140625,107.356506Q350.533427240625,107.248276,350.480957940625,107.137344Q350.428489240625,107.026405,350.381526940625,106.913025Q350.334564240625,106.799652,350.293221940625,106.684105Q350.251878740625,106.568558,350.216255640625,106.451126Q350.180632640625,106.333694,350.150814540625,106.214653Q350.120996440625,106.095612,350.097054940625,105.97525Q350.073113940625,105.854889,350.055107140625,105.733505Q350.037100840625,105.612122,350.025071640625,105.48999Q350.013042940625,105.367859,350.007021440625,105.245293Q350.000999440625,105.122719,350.000999940625,105L350.000000040625,104.999985L350.000244140625,34.999982561383L350.001244040625,34.99998256487Q350.001244540625,34.87726428,350.007266040625,34.75469384Q350.013288040625,34.63212341,350.025316740625,34.50999606Q350.037345840625,34.38786876,350.055352640625,34.26647878Q350.073359440625,34.14508879,350.097301440625,34.02472854Q350.121243040625,33.9043684,350.151061540625,33.7853279Q350.180880040625,33.6662874,350.216503640625,33.5488534Q350.252127640625,33.4314194,350.293470340625,33.3158748Q350.334813140625,33.2003304,350.381775840625,33.0869536Q350.428738640625,32.973576800000004,350.481207340625,32.8626409Q350.533676140625,32.7517047,350.591525540625,32.643477Q350.649374940625,32.5352492,350.712464840625,32.4299903Q350.775554640625,32.3247316,350.843733740625,32.2226954Q350.911912940625,32.1206589,350.985015840625,32.0220909Q351.058119340625,31.9235227,351.135971040625,31.828660499999998Q351.213822840625,31.733798,351.296235840625,31.6428699Q351.378648740625,31.5519419,351.465423840625,31.4651673Q351.552198840625,31.3783927,351.643127440625,31.2959802Q351.734055540625,31.2135677,351.828918240625,31.135716Q351.923780940625,31.0578647,352.022349340625,30.9847617Q352.120917540625,30.9116583,352.222954240625,30.8434801Q352.324990740625,30.7753019,352.430249740625,30.7122116Q352.535508840625,30.6491222,352.643736840625,30.5912733Q352.751964840625,30.5334244,352.862900940625,30.4809556Q352.973836940625,30.4284868,353.087214040625,30.3815246Q353.200590940625,30.3345623,353.316135640625,30.293219999999998Q353.431680240625,30.2518778,353.549114240625,30.2162542Q353.666548440625,30.180631599999998,353.785588940625,30.1508131Q353.904629540625,30.1209955,354.024989840625,30.097054Q354.145350100625,30.073113,354.266740140625,30.055106600000002Q354.388130190625,30.0370998,354.510257540625,30.0250716Q354.632384930625,30.0130434,354.754955380625,30.007021899999998Q354.877525860625,30.0010004,355.000244140625,30.0009999Q355.122962700625,30.0010004,355.245533440625,30.0070214Q355.368104160625,30.013042900000002,355.490231810625,30.025071099999998Q355.612359400625,30.0370998,355.733749750625,30.0551062Q355.855139970625,30.0731134,355.975500520625,30.0970545Q356.095861040625,30.1209955,356.214901940625,30.150814099999998Q356.333942740625,30.1806321,356.451377140625,30.2162552Q356.568811440625,30.2518787,356.684356340625,30.2932215Q356.799901240625,30.3345642,356.913278340625,30.3815265Q357.026655440625,30.4284887,357.137591840625,30.480958Q357.248528040625,30.5334268,357.356756240625,30.5912762Q357.464984140625,30.6491251,357.570243340625,30.712215399999998Q357.675502540625,30.7753053,357.777539240625,30.8434839Q357.879576240625,30.9116626,357.978144640625,30.984766Q358.076713340625,31.0578692,358.171576040625,31.135721Q358.266438740625,31.213573,358.357367040625,31.2959857Q358.448295640625,31.378398400000002,358.535070640625,31.4651735Q358.621845740625,31.5519485,358.704258440625,31.6428771Q358.786671140625,31.7338054,358.864523140625,31.8286681Q358.942374940625,31.9235308,359.015478140625,32.0220995Q359.088581540625,32.1206679,359.156760240625,32.2227046Q359.224938840625,32.3247414,359.288028740625,32.4300005Q359.351119040625,32.5352597,359.408967940625,32.6434879Q359.466816940625,32.7517161,359.519286140625,32.8626523Q359.571754940625,32.9735887,359.618717240625,33.0869658Q359.665679940625,33.2003429,359.707022140625,33.3158879Q359.748364940625,33.4314327,359.783988440625,33.548867Q359.819611540625,33.6663014,359.849430040625,33.7853422Q359.879248140625,33.9043831,359.903189640625,34.02474362Q359.927130740625,34.14510417,359.945137540625,34.26649439Q359.963144340625,34.38788474,359.975172540625,34.51001233Q359.987200740625,34.63213998,359.993222240625,34.7547107Q359.999243740625,34.87728144,359.999244240625,35L359.999244240625,35.00001743513Z"
      fill="var(--3-1)" />
    <rect x="240.000244140625" y="20" width="100" height="100" rx="15" fill="var(--3-0, #292929)" />
  </g>
  <g>
    <path
      d="M9.999244240625,145.00001743513L10.000244140625,145.000017438617L10.000000040625,215.00001500000002L9.999000040624999,215.00001500000002Q9.998999640625,215.12273399999998,9.992978140624999,215.2453Q9.986956640625,215.367874,9.974928340624999,215.490005Q9.962900140624999,215.61213700000002,9.944893340625,215.733521Q9.926886540625,215.854904,9.902945540625,215.975266Q9.879004440625,216.09562699999998,9.849185940625,216.21466800000002Q9.819367840624999,216.33371,9.783744840625001,216.451149Q9.748121240625,216.568581,9.706778040625,216.684128Q9.665435840625001,216.799667,9.618473540625,216.91304Q9.571511240625,217.026421,9.519042040625,217.13736Q9.466573240625,217.248291,9.408724340625,217.35652199999998Q9.350874940625001,217.464745,9.287785040625,217.570007Q9.224695240625,217.675262,9.156516040625,217.777298Q9.088336940625,217.879333,9.015234040625,217.97790500000002Q8.942130840625,218.076477,8.864279240625,218.17134099999998Q8.786427540625,218.266197,8.704014740625,218.357124Q8.621602040625,218.44805100000002,8.534826740625,218.534828Q8.448051440625001,218.621605,8.357122940625,218.704025Q8.266194540625,218.786438,8.171331840625001,218.864288Q8.076468940625,218.942139,7.977900540625,219.01523600000002Q7.879332040625,219.088333,7.777295340625,219.156517Q7.675258640625,219.224693,7.569999240625,219.287781Q7.464740240625,219.350876,7.356512340625001,219.40873Q7.248283840625,219.466568,7.137347740625,219.519043Q7.026411540625,219.571503,6.913034340625,219.618469Q6.7996571406249995,219.66542800000002,6.684112340625,219.706772Q6.568567240625,219.748108,6.451133040625,219.783737Q6.333698640625,219.81935900000002,6.214657740625,219.84918199999998Q6.095616940625,219.878998,5.975256440625,219.902939Q5.854895890625,219.92687999999998,5.733505610625,219.944885Q5.612115320625,219.962891,5.489987670625,219.97493Q5.367860020625,219.986954,5.245289300625,219.992981Q5.122718550625,219.99900100000002,5.000000000005,219.99900100000002Q4.877281430625,219.99900100000002,4.754710700625,219.992981Q4.632139980625,219.986954,4.510012330625,219.97493Q4.387884740625,219.962891,4.266494390625,219.944885Q4.145104110625,219.92687999999998,4.024743560625,219.902939Q3.904382940625,219.878998,3.785342140625,219.849174Q3.6663012406249997,219.81935900000002,3.548866940625,219.783737Q3.431432740625,219.748108,3.315887940625,219.706772Q3.200342940625,219.66542800000002,3.086965840625,219.618469Q2.973588740625,219.571503,2.862652540625,219.519035Q2.751716140625,219.466568,2.643488140625,219.408722Q2.535260240625,219.350868,2.430000740625,219.287781Q2.324741840625,219.22468600000002,2.222704840625,219.156509Q2.120668140625,219.088333,2.022099540625,219.01522799999998Q1.923531040625,218.94212299999998,1.828668140625,218.864273Q1.733805640625,218.786423,1.642877140625,218.70400999999998Q1.5519485406250002,218.621597,1.465173440625,218.534821Q1.3783984406249998,218.44804399999998,1.295985740625,218.35711700000002Q1.2135729406250002,218.26619,1.1357212406250001,218.171326Q1.0578694406250002,218.076462,0.9847660406249998,217.97789Q0.9116630406250001,217.879326,0.8434839406250001,217.77729Q0.7753052406250003,217.675247,0.7122154406250001,217.569992Q0.6491251406250003,217.464737,0.5912761406250002,217.356506Q0.5334272406249996,217.248276,0.4809579406250002,217.13734399999998Q0.4284892406249998,217.026405,0.38152694062500014,216.913025Q0.33456424062500023,216.79965199999998,0.29322194062500007,216.684105Q0.25187874062500004,216.568558,0.21625564062499958,216.451126Q0.18063264062500028,216.33369399999998,0.15081454062500033,216.214653Q0.12099644062500037,216.09561200000002,0.09705494062500009,215.97525000000002Q0.07311394062500032,215.85488900000001,0.055107140625000106,215.73350499999998Q0.03710084062500041,215.612122,0.02507164062499978,215.48999Q0.013042940624999666,215.367859,0.00702144062500043,215.245293Q0.0009994406249997922,215.12271900000002,0.0009999406250003062,215L4.06250002527031e-8,214.99998499999998L0.000244140625,144.999982561383L0.0012440406250000535,144.99998256487Q0.0012445406249996793,144.87726428,0.007266040624999803,144.75469384Q0.013288040625000441,144.63212341,0.025316740624999667,144.50999606Q0.037345840625000015,144.38786876,0.05535264062500023,144.26647878Q0.07335944062500044,144.14508879,0.09730144062500035,144.02472854Q0.12124304062500002,143.9043684,0.1510615406250002,143.7853279Q0.1808800406250004,143.6662874,0.2165036406249996,143.5488534Q0.2521276406249999,143.4314194,0.2934703406250003,143.3158748Q0.3348131406250001,143.2003304,0.38177584062500003,143.0869536Q0.4287386406250002,142.9735768,0.4812073406249997,142.8626409Q0.5336761406250004,142.7517047,0.5915255406249997,142.643477Q0.649374940625,142.5352492,0.7124648406249996,142.4299903Q0.7755546406249998,142.3247316,0.8437337406249998,142.2226954Q0.9119129406250002,142.1206589,0.9850158406249996,142.0220909Q1.0581193406249998,141.9235227,1.1359710406249999,141.8286605Q1.2138228406249998,141.733798,1.296235840625,141.6428699Q1.378648740625,141.5519419,1.4654238406250002,141.4651673Q1.552198840625,141.3783927,1.6431274406249998,141.2959802Q1.734055540625,141.2135677,1.8289182406250002,141.135716Q1.923780940625,141.0578647,2.022349340625,140.9847617Q2.120917540625,140.9116583,2.222954240625,140.8434801Q2.324990740625,140.7753019,2.430249740625,140.7122116Q2.535508840625,140.6491222,2.643736840625,140.5912733Q2.751964840625,140.5334244,2.862900940625,140.4809556Q2.973836940625,140.4284868,3.0872140406249997,140.3815246Q3.200590940625,140.3345623,3.316135640625,140.29322Q3.431680240625,140.2518778,3.5491142406250002,140.2162542Q3.666548440625,140.1806316,3.785588940625,140.1508131Q3.904629540625,140.1209955,4.024989840625,140.097054Q4.145350100625,140.073113,4.266740140625,140.0551066Q4.388130190625,140.0370998,4.510257540625,140.0250716Q4.632384930625,140.0130434,4.754955380625,140.0070219Q4.877525860625,140.0010004,5.000244140625,140.0009999Q5.122962700625,140.0010004,5.245533440625,140.0070214Q5.368104160625,140.0130429,5.490231810625,140.0250711Q5.612359400625,140.0370998,5.733749750625,140.0551062Q5.855139970625,140.0731134,5.975500520625,140.0970545Q6.095861040625,140.1209955,6.2149019406249995,140.1508141Q6.333942740625,140.1806321,6.4513771406250005,140.2162552Q6.568811440625,140.2518787,6.6843563406249995,140.2932215Q6.799901240625,140.3345642,6.913278340625,140.3815265Q7.0266554406249995,140.4284887,7.137591840624999,140.480958Q7.248528040625001,140.5334268,7.356756240625,140.5912762Q7.464984140625,140.6491251,7.570243340625,140.7122154Q7.675502540625001,140.7753053,7.777539240625,140.8434839Q7.879576240625,140.9116626,7.9781446406250005,140.984766Q8.076713340625,141.0578692,8.171576040625,141.135721Q8.266438740625,141.213573,8.357367040625,141.2959857Q8.448295640625,141.3783984,8.535070640625,141.4651735Q8.621845740625,141.5519485,8.704258440625,141.6428771Q8.786671140625,141.7338054,8.864523140625,141.8286681Q8.942374940625001,141.9235308,9.015478140625,142.0220995Q9.088581540625,142.1206679,9.156760240625001,142.2227046Q9.224938840625,142.3247414,9.288028740625,142.4300005Q9.351119040625,142.5352597,9.408967940625,142.6434879Q9.466816940625,142.7517161,9.519286140624999,142.8626523Q9.571754940625,142.9735887,9.618717240625,143.0869658Q9.665679940625001,143.2003429,9.707022140625,143.3158879Q9.748364940624999,143.4314327,9.783988440625,143.548867Q9.819611540625,143.6663014,9.849430040625,143.7853422Q9.879248140625,143.9043831,9.903189640625001,144.02474362Q9.927130740625,144.14510417,9.945137540625,144.26649439Q9.963144340625,144.38788474,9.975172540625,144.51001233Q9.987200740625,144.63213998,9.993222240625,144.7547107Q9.999243740625001,144.87728144,9.999244240625,145L9.999244240625,145.00001743513Z"
      fill="var(--4-1)" />
    <rect x="20.000244140625" y="130" width="100" height="100" rx="15" fill="var(--4-0, #292929)" />
  </g>
  <g>
    <rect x="130.000244140625" y="130" width="100" height="100" rx="15" fill="var(--5-0, #292929)" />
  </g>
  <g>
    <path
      d="M359.999244240625,145.00001743513L360.000244140625,145.000017438617L360.000000040625,215.00001500000002L359.999000040625,215.00001500000002Q359.998999640625,215.12273399999998,359.992978140625,215.2453Q359.986956640625,215.367874,359.974928340625,215.490005Q359.962900140625,215.61213700000002,359.944893340625,215.733521Q359.926886540625,215.854904,359.902945540625,215.975266Q359.879004440625,216.09562699999998,359.849185940625,216.21466800000002Q359.819367840625,216.33371,359.783744840625,216.451149Q359.748121240625,216.568581,359.706778040625,216.684128Q359.665435840625,216.799667,359.618473540625,216.91304Q359.571511240625,217.026421,359.519042040625,217.13736Q359.466573240625,217.248291,359.408724340625,217.35652199999998Q359.350874940625,217.464745,359.287785040625,217.570007Q359.224695240625,217.675262,359.156516040625,217.777298Q359.088336940625,217.879333,359.015234040625,217.97790500000002Q358.942130840625,218.076477,358.864279240625,218.17134099999998Q358.786427540625,218.266197,358.704014740625,218.357124Q358.621602040625,218.44805100000002,358.534826740625,218.534828Q358.448051440625,218.621605,358.357122940625,218.704025Q358.266194540625,218.786438,358.171331840625,218.864288Q358.076468940625,218.942139,357.977900540625,219.01523600000002Q357.879332040625,219.088333,357.777295340625,219.156517Q357.675258640625,219.224693,357.569999240625,219.287781Q357.464740240625,219.350876,357.356512340625,219.40873Q357.248283840625,219.466568,357.137347740625,219.519043Q357.026411540625,219.571503,356.913034340625,219.618469Q356.799657140625,219.66542800000002,356.684112340625,219.706772Q356.568567240625,219.748108,356.451133040625,219.783737Q356.333698640625,219.81935900000002,356.214657740625,219.84918199999998Q356.095616940625,219.878998,355.975256440625,219.902939Q355.854895890625,219.92687999999998,355.733505610625,219.944885Q355.612115320625,219.962891,355.489987670625,219.97493Q355.367860020625,219.986954,355.245289300625,219.992981Q355.122718550625,219.99900100000002,355.000000000005,219.99900100000002Q354.877281430625,219.99900100000002,354.754710700625,219.992981Q354.632139980625,219.986954,354.510012330625,219.97493Q354.387884740625,219.962891,354.266494390625,219.944885Q354.145104110625,219.92687999999998,354.024743560625,219.902939Q353.904382940625,219.878998,353.785342140625,219.849174Q353.666301240625,219.81935900000002,353.548866940625,219.783737Q353.431432740625,219.748108,353.315887940625,219.706772Q353.200342940625,219.66542800000002,353.086965840625,219.618469Q352.973588740625,219.571503,352.862652540625,219.519035Q352.751716140625,219.466568,352.643488140625,219.408722Q352.535260240625,219.350868,352.430000740625,219.287781Q352.324741840625,219.22468600000002,352.222704840625,219.156509Q352.120668140625,219.088333,352.022099540625,219.01522799999998Q351.923531040625,218.94212299999998,351.828668140625,218.864273Q351.733805640625,218.786423,351.642877140625,218.70400999999998Q351.551948540625,218.621597,351.465173440625,218.534821Q351.378398440625,218.44804399999998,351.295985740625,218.35711700000002Q351.213572940625,218.26619,351.135721240625,218.171326Q351.057869440625,218.076462,350.984766040625,217.97789Q350.911663040625,217.879326,350.843483940625,217.77729Q350.775305240625,217.675247,350.712215440625,217.569992Q350.649125140625,217.464737,350.591276140625,217.356506Q350.533427240625,217.248276,350.480957940625,217.13734399999998Q350.428489240625,217.026405,350.381526940625,216.913025Q350.334564240625,216.79965199999998,350.293221940625,216.684105Q350.251878740625,216.568558,350.216255640625,216.451126Q350.180632640625,216.33369399999998,350.150814540625,216.214653Q350.120996440625,216.09561200000002,350.097054940625,215.97525000000002Q350.073113940625,215.85488900000001,350.055107140625,215.73350499999998Q350.037100840625,215.612122,350.025071640625,215.48999Q350.013042940625,215.367859,350.007021440625,215.245293Q350.000999440625,215.12271900000002,350.000999940625,215L350.000000040625,214.99998499999998L350.000244140625,144.999982561383L350.001244040625,144.99998256487Q350.001244540625,144.87726428,350.007266040625,144.75469384Q350.013288040625,144.63212341,350.025316740625,144.50999606Q350.037345840625,144.38786876,350.055352640625,144.26647878Q350.073359440625,144.14508879,350.097301440625,144.02472854Q350.121243040625,143.9043684,350.151061540625,143.7853279Q350.180880040625,143.6662874,350.216503640625,143.5488534Q350.252127640625,143.4314194,350.293470340625,143.3158748Q350.334813140625,143.2003304,350.381775840625,143.0869536Q350.428738640625,142.9735768,350.481207340625,142.8626409Q350.533676140625,142.7517047,350.591525540625,142.643477Q350.649374940625,142.5352492,350.712464840625,142.4299903Q350.775554640625,142.3247316,350.843733740625,142.2226954Q350.911912940625,142.1206589,350.985015840625,142.0220909Q351.058119340625,141.9235227,351.135971040625,141.8286605Q351.213822840625,141.733798,351.296235840625,141.6428699Q351.378648740625,141.5519419,351.465423840625,141.4651673Q351.552198840625,141.3783927,351.643127440625,141.2959802Q351.734055540625,141.2135677,351.828918240625,141.135716Q351.923780940625,141.0578647,352.022349340625,140.9847617Q352.120917540625,140.9116583,352.222954240625,140.8434801Q352.324990740625,140.7753019,352.430249740625,140.7122116Q352.535508840625,140.6491222,352.643736840625,140.5912733Q352.751964840625,140.5334244,352.862900940625,140.4809556Q352.973836940625,140.4284868,353.087214040625,140.3815246Q353.200590940625,140.3345623,353.316135640625,140.29322Q353.431680240625,140.2518778,353.549114240625,140.2162542Q353.666548440625,140.1806316,353.785588940625,140.1508131Q353.904629540625,140.1209955,354.024989840625,140.097054Q354.145350100625,140.073113,354.266740140625,140.0551066Q354.388130190625,140.0370998,354.510257540625,140.0250716Q354.632384930625,140.0130434,354.754955380625,140.0070219Q354.877525860625,140.0010004,355.000244140625,140.0009999Q355.122962700625,140.0010004,355.245533440625,140.0070214Q355.368104160625,140.0130429,355.490231810625,140.0250711Q355.612359400625,140.0370998,355.733749750625,140.0551062Q355.855139970625,140.0731134,355.975500520625,140.0970545Q356.095861040625,140.1209955,356.214901940625,140.1508141Q356.333942740625,140.1806321,356.451377140625,140.2162552Q356.568811440625,140.2518787,356.684356340625,140.2932215Q356.799901240625,140.3345642,356.913278340625,140.3815265Q357.026655440625,140.4284887,357.137591840625,140.480958Q357.248528040625,140.5334268,357.356756240625,140.5912762Q357.464984140625,140.6491251,357.570243340625,140.7122154Q357.675502540625,140.7753053,357.777539240625,140.8434839Q357.879576240625,140.9116626,357.978144640625,140.984766Q358.076713340625,141.0578692,358.171576040625,141.135721Q358.266438740625,141.213573,358.357367040625,141.2959857Q358.448295640625,141.3783984,358.535070640625,141.4651735Q358.621845740625,141.5519485,358.704258440625,141.6428771Q358.786671140625,141.7338054,358.864523140625,141.8286681Q358.942374940625,141.9235308,359.015478140625,142.0220995Q359.088581540625,142.1206679,359.156760240625,142.2227046Q359.224938840625,142.3247414,359.288028740625,142.4300005Q359.351119040625,142.5352597,359.408967940625,142.6434879Q359.466816940625,142.7517161,359.519286140625,142.8626523Q359.571754940625,142.9735887,359.618717240625,143.0869658Q359.665679940625,143.2003429,359.707022140625,143.3158879Q359.748364940625,143.4314327,359.783988440625,143.548867Q359.819611540625,143.6663014,359.849430040625,143.7853422Q359.879248140625,143.9043831,359.903189640625,144.02474362Q359.927130740625,144.14510417,359.945137540625,144.26649439Q359.963144340625,144.38788474,359.975172540625,144.51001233Q359.987200740625,144.63213998,359.993222240625,144.7547107Q359.999243740625,144.87728144,359.999244240625,145L359.999244240625,145.00001743513Z"
      fill="var(--6-1)" />
    <rect x="240.000244140625" y="130" width="100" height="100" rx="15" fill="var(--6-0, #292929)" />
  </g>
  <g>
    <path
      d="M35.000244140625,360L105.000244140625,360L105.000244140625,359.9990001Q105.122963140625,359.9989996,105.245537140625,359.9929786Q105.368103140625,359.9869571,105.490234140625,359.9749289Q105.612366140625,359.9629002,105.733749140625,359.9448938Q105.855133140625,359.9268866,105.975494140625,359.9029455Q106.095856140625,359.8790045,106.214897140625,359.8491859Q106.333938140625,359.8193679,106.451370140625,359.7837448Q106.568802140625,359.7481213,106.684349140625,359.7067785Q106.799896140625,359.6654358,106.913269140625,359.6184735Q107.026649140625,359.5715113,107.137588140625,359.519042Q107.248520140625,359.4665732,107.356750140625,359.4087238Q107.464973140625,359.3508749,107.570228140625,359.2877846Q107.675491140625,359.2246947,107.777527140625,359.1565161Q107.879562140625,359.0883374,107.978134140625,359.015234Q108.076706140625,358.9421308,108.171570140625,358.864279Q108.266434140625,358.786427,108.357361140625,358.7040143Q108.448288140625,358.6216016,108.535065140625,358.5348265Q108.621841140625,358.4480515,108.704254140625,358.3571229Q108.786667140625,358.2661946,108.864517140625,358.1713319Q108.942367140625,358.0764692,109.015472140625,357.9779005Q109.088577140625,357.8793321,109.156753140625,357.7772954Q109.224930140625,357.6752586,109.288017140625,357.5699995Q109.351112140625,357.4647403,109.408966140625,357.3565121Q109.466812140625,357.2482839,109.519287140625,357.1373477Q109.571747140625,357.0264113,109.618713140625,356.9130342Q109.665672140625,356.7996571,109.707016140625,356.6841121Q109.748352140625,356.5685673,109.783981140625,356.451133Q109.819603140625,356.3336986,109.849426140625,356.2146578Q109.879242140625,356.0956169,109.903183140625,355.97525638Q109.927124140625,355.85489583,109.945129140625,355.73350561Q109.963135140625,355.61211526,109.975174140625,355.48998767Q109.987198140625,355.36786002,109.993225140625,355.2452893Q109.999245140625,355.12271856,109.999245140625,355Q109.999245140625,354.87728144,109.993225140625,354.7547107Q109.987198140625,354.63213998,109.975174140625,354.51001233Q109.963135140625,354.38788474,109.945129140625,354.26649439Q109.927124140625,354.14510417,109.903183140625,354.02474362Q109.879242140625,353.9043831,109.849418140625,353.7853422Q109.819603140625,353.6663014,109.783981140625,353.548867Q109.748352140625,353.4314327,109.707016140625,353.3158878Q109.665672140625,353.2003429,109.618713140625,353.0869658Q109.571747140625,352.9735887,109.519279140625,352.8626523Q109.466812140625,352.7517161,109.408966140625,352.6434879Q109.351112140625,352.53526,109.288025140625,352.4300008Q109.224930140625,352.3247416,109.156753140625,352.2227049Q109.088577140625,352.1206679,109.015472140625,352.0220995Q108.942367140625,351.9235308,108.864517140625,351.8286681Q108.786667140625,351.7338054,108.704254140625,351.6428771Q108.621841140625,351.5519485,108.535065140625,351.4651735Q108.448288140625,351.3783984,108.357361140625,351.2959857Q108.266434140625,351.213573,108.171570140625,351.135721Q108.076706140625,351.0578692,107.978134140625,350.984766Q107.879570140625,350.9116626,107.777534140625,350.8434839Q107.675491140625,350.7753053,107.570236140625,350.7122154Q107.464981140625,350.6491251,107.356750140625,350.5912762Q107.248520140625,350.5334272,107.137588140625,350.480958Q107.026649140625,350.4284892,106.913269140625,350.3815269Q106.799896140625,350.3345642,106.684349140625,350.293222Q106.568802140625,350.2518792,106.451370140625,350.2162557Q106.333938140625,350.1806326,106.214897140625,350.1508141Q106.095856140625,350.120996,105.975494140625,350.0970545Q105.855133140625,350.0731134,105.733749140625,350.0551066Q105.612366140625,350.0370998,105.490234140625,350.0250716Q105.368103140625,350.0130434,105.245537140625,350.0070219Q105.122963140625,350.0010004,105.000244140625,350.0009999L105.000244140625,350L35.000244140625,350L35.000244140625,350.0009999Q34.877525580625,350.0010004,34.754954840625,350.0070214Q34.632384120625,350.0130429,34.510256470625,350.0250711Q34.388128880625,350.0370998,34.266738530625,350.0551062Q34.145348310625,350.0731134,34.024987760625,350.0970545Q33.904627240625,350.1209955,33.785586340625,350.1508141Q33.666545540625,350.1806321,33.549111140625,350.2162552Q33.431676840625,350.2518787,33.316131940625,350.2932215Q33.200587040625,350.3345642,33.087209940625,350.3815265Q32.973832840625,350.4284887,32.862896440625,350.480958Q32.751960240625,350.5334268,32.643732040625,350.5912762Q32.535504140625,350.6491251,32.430244940625,350.7122154Q32.324985740625,350.7753053,32.222949040625,350.8434839Q32.120912040625,350.9116626,32.022343640625,350.984766Q31.923774940625,351.0578692,31.828912240625,351.135721Q31.734049540625,351.213573,31.643121240625,351.2959857Q31.552192640625,351.3783984,31.465417640625,351.4651735Q31.378642540625002,351.5519485,31.296229840625,351.6428771Q31.213817140625,351.7338054,31.135965140625,351.8286681Q31.058113340625,351.9235308,30.985010140625,352.0220995Q30.911906740625,352.1206679,30.843728040625,352.2227046Q30.775549440625,352.3247414,30.712459540624998,352.4300005Q30.649369240625,352.5352597,30.591520340625,352.6434879Q30.533671340625,352.7517161,30.481202140625,352.8626523Q30.428733340625,352.9735887,30.381771040625,353.0869658Q30.334808340625,353.2003429,30.293466140625,353.3158879Q30.252123340625,353.4314327,30.216499840624998,353.548867Q30.180876740625,353.6663014,30.151058240624998,353.7853422Q30.121240140624998,353.9043831,30.097298640625,354.02474362Q30.073357540625,354.14510417,30.055350740625002,354.26649439Q30.037343940625,354.38788474,30.025315740625,354.51001233Q30.013287540625,354.63213998,30.007266040624998,354.7547107Q30.001244540625,354.87728144,30.001244040625,355Q30.001244540625,355.12271856,30.007265540625,355.2452893Q30.013287040625002,355.36786002,30.025315240624998,355.48998767Q30.037343940625,355.61211526,30.055350340625,355.73350561Q30.073357540625,355.85489583,30.097298640625,355.97525638Q30.121239640625,356.0956169,30.151058240624998,356.2146578Q30.180876240625,356.3336986,30.216499340625,356.451133Q30.252122840625,356.5685673,30.293465640625,356.6841122Q30.334808340625,356.7996571,30.381770640625,356.9130342Q30.428732840625,357.0264113,30.481202140625,357.1373477Q30.533670940625,357.2482839,30.591520340625,357.3565121Q30.649369240625,357.46474,30.712459540624998,357.5699992Q30.775549440625,357.6752584,30.843728040625,357.7772951Q30.911906740625,357.8793321,30.985010140625,357.9779005Q31.058113340625,358.0764692,31.135965140625,358.1713319Q31.213817140625,358.2661946,31.296229840625,358.3571229Q31.378642540625002,358.4480515,31.465417640625,358.5348265Q31.552192640625,358.6216016,31.643121240625,358.7040143Q31.734049540625,358.786427,31.828912240625,358.864279Q31.923774940625,358.9421308,32.022343640625,359.015234Q32.120912040625,359.0883374,32.222948740625,359.1565161Q32.324985540625,359.2246947,32.430244640625,359.2877846Q32.535503840625,359.3508749,32.643732040625,359.4087238Q32.751960240625,359.4665728,32.862896440625,359.519042Q32.973832840625,359.5715108,33.087209940625,359.6184731Q33.200587040625,359.6654358,33.316132040625,359.706778Q33.431676840625,359.7481208,33.549111140625,359.7837443Q33.666545540625,359.8193674,33.785586340625,359.8491859Q33.904627240625,359.879004,34.024987760625,359.9029455Q34.145348310625,359.9268866,34.266738530625,359.9448934Q34.388128880625,359.9629002,34.510256470625,359.9749284Q34.632384120625,359.9869566,34.754954840625,359.9929781Q34.877525580625,359.9989996,35.000244140625,359.9990001L35.000244140625,360Z"
      fill="var(--7-2)" />
    <path
      d="M9.999244240625,255.00001743513L10.000244140625,255.000017438617L10.000000040625,325.000015L9.999000040624999,325.000015Q9.998999640625,325.122734,9.992978140624999,325.2453Q9.986956640625,325.36787400000003,9.974928340624999,325.490005Q9.962900140624999,325.612137,9.944893340625,325.733521Q9.926886540625,325.85490400000003,9.902945540625,325.97526600000003Q9.879004440625,326.095627,9.849185940625,326.214668Q9.819367840624999,326.33371,9.783744840625001,326.451149Q9.748121240625,326.568581,9.706778040625,326.684128Q9.665435840625001,326.799667,9.618473540625,326.91304Q9.571511240625,327.026421,9.519042040625,327.13736Q9.466573240625,327.248291,9.408724340625,327.356522Q9.350874940625001,327.464745,9.287785040625,327.57000700000003Q9.224695240625,327.675262,9.156516040625,327.777298Q9.088336940625,327.879333,9.015234040625,327.977905Q8.942130840625,328.076477,8.864279240625,328.171341Q8.786427540625,328.26619700000003,8.704014740625,328.357124Q8.621602040625,328.448051,8.534826740625,328.534828Q8.448051440625001,328.621605,8.357122940625,328.704025Q8.266194540625,328.786438,8.171331840625001,328.864288Q8.076468940625,328.942139,7.977900540625,329.015236Q7.879332040625,329.08833300000003,7.777295340625,329.156517Q7.675258640625,329.224693,7.569999240625,329.287781Q7.464740240625,329.35087599999997,7.356512340625001,329.40873Q7.248283840625,329.466568,7.137347740625,329.519043Q7.026411540625,329.571503,6.913034340625,329.618469Q6.7996571406249995,329.665428,6.684112340625,329.706772Q6.568567240625,329.748108,6.451133040625,329.783737Q6.333698640625,329.819359,6.214657740625,329.849182Q6.095616940625,329.878998,5.975256440625,329.902939Q5.854895890625,329.92688,5.733505610625,329.944885Q5.612115320625,329.962891,5.489987670625,329.97493Q5.367860020625,329.98695399999997,5.245289300625,329.992981Q5.122718550625,329.999001,5.000000000005,329.999001Q4.877281430625,329.999001,4.754710700625,329.992981Q4.632139980625,329.98695399999997,4.510012330625,329.97493Q4.387884740625,329.962891,4.266494390625,329.944885Q4.145104110625,329.92688,4.024743560625,329.902939Q3.904382940625,329.878998,3.785342140625,329.849174Q3.6663012406249997,329.819359,3.548866940625,329.783737Q3.431432740625,329.748108,3.315887940625,329.706772Q3.200342940625,329.665428,3.086965840625,329.618469Q2.973588740625,329.571503,2.862652540625,329.51903500000003Q2.751716140625,329.466568,2.643488140625,329.408722Q2.535260240625,329.350868,2.430000740625,329.287781Q2.324741840625,329.224686,2.222704840625,329.156509Q2.120668140625,329.08833300000003,2.022099540625,329.015228Q1.923531040625,328.942123,1.828668140625,328.864273Q1.733805640625,328.786423,1.642877140625,328.70401Q1.5519485406250002,328.621597,1.465173440625,328.53482099999997Q1.3783984406249998,328.448044,1.295985740625,328.357117Q1.2135729406250002,328.26619,1.1357212406250001,328.171326Q1.0578694406250002,328.076462,0.9847660406249998,327.97789Q0.9116630406250001,327.879326,0.8434839406250001,327.77729Q0.7753052406250003,327.675247,0.7122154406250001,327.569992Q0.6491251406250003,327.464737,0.5912761406250002,327.35650599999997Q0.5334272406249996,327.24827600000003,0.4809579406250002,327.137344Q0.4284892406249998,327.026405,0.38152694062500014,326.913025Q0.33456424062500023,326.799652,0.29322194062500007,326.684105Q0.25187874062500004,326.568558,0.21625564062499958,326.451126Q0.18063264062500028,326.333694,0.15081454062500033,326.214653Q0.12099644062500037,326.095612,0.09705494062500009,325.97525Q0.07311394062500032,325.854889,0.055107140625000106,325.733505Q0.03710084062500041,325.612122,0.02507164062499978,325.48999000000003Q0.013042940624999666,325.367859,0.00702144062500043,325.245293Q0.0009994406249997922,325.122719,0.0009999406250003062,325L4.06250002527031e-8,324.999985L0.000244140625,254.999982561383L0.0012440406250000535,254.99998256487Q0.0012445406249996793,254.87726428,0.007266040624999803,254.75469384Q0.013288040625000441,254.63212341,0.025316740624999667,254.50999606Q0.037345840625000015,254.38786876,0.05535264062500023,254.26647878Q0.07335944062500044,254.14508879,0.09730144062500035,254.02472854Q0.12124304062500002,253.9043684,0.1510615406250002,253.7853279Q0.1808800406250004,253.6662874,0.2165036406249996,253.5488534Q0.2521276406249999,253.4314194,0.2934703406250003,253.3158748Q0.3348131406250001,253.2003304,0.38177584062500003,253.0869536Q0.4287386406250002,252.9735768,0.4812073406249997,252.8626409Q0.5336761406250004,252.7517047,0.5915255406249997,252.643477Q0.649374940625,252.5352492,0.7124648406249996,252.4299903Q0.7755546406249998,252.3247316,0.8437337406249998,252.2226954Q0.9119129406250002,252.1206589,0.9850158406249996,252.0220909Q1.0581193406249998,251.9235227,1.1359710406249999,251.8286605Q1.2138228406249998,251.733798,1.296235840625,251.6428699Q1.378648740625,251.5519419,1.4654238406250002,251.4651673Q1.552198840625,251.3783927,1.6431274406249998,251.2959802Q1.734055540625,251.2135677,1.8289182406250002,251.135716Q1.923780940625,251.0578647,2.022349340625,250.9847617Q2.120917540625,250.9116583,2.222954240625,250.8434801Q2.324990740625,250.7753019,2.430249740625,250.7122116Q2.535508840625,250.6491222,2.643736840625,250.5912733Q2.751964840625,250.5334244,2.862900940625,250.4809556Q2.973836940625,250.4284868,3.0872140406249997,250.3815246Q3.200590940625,250.3345623,3.316135640625,250.29322Q3.431680240625,250.2518778,3.5491142406250002,250.2162542Q3.666548440625,250.1806316,3.785588940625,250.1508131Q3.904629540625,250.1209955,4.024989840625,250.097054Q4.145350100625,250.073113,4.266740140625,250.0551066Q4.388130190625,250.0370998,4.510257540625,250.0250716Q4.632384930625,250.0130434,4.754955380625,250.0070219Q4.877525860625,250.0010004,5.000244140625,250.0009999Q5.122962700625,250.0010004,5.245533440625,250.0070214Q5.368104160625,250.0130429,5.490231810625,250.0250711Q5.612359400625,250.0370998,5.733749750625,250.0551062Q5.855139970625,250.0731134,5.975500520625,250.0970545Q6.095861040625,250.1209955,6.2149019406249995,250.1508141Q6.333942740625,250.1806321,6.4513771406250005,250.2162552Q6.568811440625,250.2518787,6.6843563406249995,250.2932215Q6.799901240625,250.3345642,6.913278340625,250.3815265Q7.0266554406249995,250.4284887,7.137591840624999,250.480958Q7.248528040625001,250.5334268,7.356756240625,250.5912762Q7.464984140625,250.6491251,7.570243340625,250.7122154Q7.675502540625001,250.7753053,7.777539240625,250.8434839Q7.879576240625,250.9116626,7.9781446406250005,250.984766Q8.076713340625,251.0578692,8.171576040625,251.135721Q8.266438740625,251.213573,8.357367040625,251.2959857Q8.448295640625,251.3783984,8.535070640625,251.4651735Q8.621845740625,251.5519485,8.704258440625,251.6428771Q8.786671140625,251.7338054,8.864523140625,251.8286681Q8.942374940625001,251.9235308,9.015478140625,252.0220995Q9.088581540625,252.1206679,9.156760240625001,252.2227046Q9.224938840625,252.3247414,9.288028740625,252.4300005Q9.351119040625,252.5352597,9.408967940625,252.6434879Q9.466816940625,252.7517161,9.519286140624999,252.8626523Q9.571754940625,252.9735887,9.618717240625,253.0869658Q9.665679940625001,253.2003429,9.707022140625,253.3158879Q9.748364940624999,253.4314327,9.783988440625,253.548867Q9.819611540625,253.6663014,9.849430040625,253.7853422Q9.879248140625,253.9043831,9.903189640625001,254.02474362Q9.927130740625,254.14510417,9.945137540625,254.26649439Q9.963144340625,254.38788474,9.975172540625,254.51001233Q9.987200740625,254.63213998,9.993222240625,254.7547107Q9.999243740625001,254.87728144,9.999244240625,255L9.999244240625,255.00001743513Z"
      fill="var(--7-1)" />
    <rect x="20.000244140625" y="240" width="100" height="100" rx="15" fill="var(--7-0, #292929)" />
  </g>
  <g>
    <path
      d="M145.000244140625,360L215.000244140625,360L215.000244140625,359.9990001Q215.12296314062502,359.9989996,215.245537140625,359.9929786Q215.368103140625,359.9869571,215.490234140625,359.9749289Q215.612366140625,359.9629002,215.73374914062498,359.9448938Q215.85513314062501,359.9268866,215.97549414062502,359.9029455Q216.09585614062502,359.8790045,216.214897140625,359.8491859Q216.33393814062498,359.8193679,216.451370140625,359.7837448Q216.568802140625,359.7481213,216.684349140625,359.7067785Q216.79989614062498,359.6654358,216.913269140625,359.6184735Q217.026649140625,359.5715113,217.13758814062498,359.519042Q217.248520140625,359.4665732,217.356750140625,359.4087238Q217.464973140625,359.3508749,217.570228140625,359.2877846Q217.675491140625,359.2246947,217.777527140625,359.1565161Q217.879562140625,359.0883374,217.978134140625,359.015234Q218.076706140625,358.9421308,218.171570140625,358.864279Q218.266434140625,358.786427,218.35736114062502,358.7040143Q218.44828814062498,358.6216016,218.535065140625,358.5348265Q218.621841140625,358.4480515,218.70425414062498,358.3571229Q218.786667140625,358.2661946,218.864517140625,358.1713319Q218.94236714062498,358.0764692,219.01547214062498,357.9779005Q219.088577140625,357.8793321,219.156753140625,357.7772954Q219.22493014062502,357.6752586,219.28801714062502,357.5699995Q219.351112140625,357.4647403,219.408966140625,357.3565121Q219.466812140625,357.2482839,219.519287140625,357.1373477Q219.571747140625,357.0264113,219.618713140625,356.9130342Q219.66567214062502,356.7996571,219.707016140625,356.6841121Q219.748352140625,356.5685673,219.783981140625,356.451133Q219.81960314062502,356.3336986,219.84942614062498,356.2146578Q219.879242140625,356.0956169,219.903183140625,355.97525638Q219.92712414062498,355.85489583,219.945129140625,355.73350561Q219.963135140625,355.61211526,219.975174140625,355.48998767Q219.987198140625,355.36786002,219.993225140625,355.2452893Q219.99924514062502,355.12271856,219.99924514062502,355Q219.99924514062502,354.87728144,219.993225140625,354.7547107Q219.987198140625,354.63213998,219.975174140625,354.51001233Q219.963135140625,354.38788474,219.945129140625,354.26649439Q219.92712414062498,354.14510417,219.903183140625,354.02474362Q219.879242140625,353.9043831,219.849418140625,353.7853422Q219.81960314062502,353.6663014,219.783981140625,353.548867Q219.748352140625,353.4314327,219.707016140625,353.3158878Q219.66567214062502,353.2003429,219.618713140625,353.0869658Q219.571747140625,352.9735887,219.519279140625,352.8626523Q219.466812140625,352.7517161,219.408966140625,352.6434879Q219.351112140625,352.53526,219.288025140625,352.4300008Q219.22493014062502,352.3247416,219.156753140625,352.2227049Q219.088577140625,352.1206679,219.01547214062498,352.0220995Q218.94236714062498,351.9235308,218.864517140625,351.8286681Q218.786667140625,351.7338054,218.70425414062498,351.6428771Q218.621841140625,351.5519485,218.535065140625,351.4651735Q218.44828814062498,351.3783984,218.35736114062502,351.2959857Q218.266434140625,351.213573,218.171570140625,351.135721Q218.076706140625,351.0578692,217.978134140625,350.984766Q217.879570140625,350.9116626,217.777534140625,350.8434839Q217.675491140625,350.7753053,217.570236140625,350.7122154Q217.464981140625,350.6491251,217.356750140625,350.5912762Q217.248520140625,350.5334272,217.13758814062498,350.480958Q217.026649140625,350.4284892,216.913269140625,350.3815269Q216.79989614062498,350.3345642,216.684349140625,350.293222Q216.568802140625,350.2518792,216.451370140625,350.2162557Q216.33393814062498,350.1806326,216.214897140625,350.1508141Q216.09585614062502,350.120996,215.97549414062502,350.0970545Q215.85513314062501,350.0731134,215.73374914062498,350.0551066Q215.612366140625,350.0370998,215.490234140625,350.0250716Q215.368103140625,350.0130434,215.245537140625,350.0070219Q215.12296314062502,350.0010004,215.000244140625,350.0009999L215.000244140625,350L145.000244140625,350L145.000244140625,350.0009999Q144.877525580625,350.0010004,144.754954840625,350.0070214Q144.632384120625,350.0130429,144.510256470625,350.0250711Q144.388128880625,350.0370998,144.266738530625,350.0551062Q144.145348310625,350.0731134,144.024987760625,350.0970545Q143.904627240625,350.1209955,143.785586340625,350.1508141Q143.666545540625,350.1806321,143.549111140625,350.2162552Q143.431676840625,350.2518787,143.316131940625,350.2932215Q143.200587040625,350.3345642,143.087209940625,350.3815265Q142.973832840625,350.4284887,142.862896440625,350.480958Q142.751960240625,350.5334268,142.643732040625,350.5912762Q142.535504140625,350.6491251,142.430244940625,350.7122154Q142.324985740625,350.7753053,142.222949040625,350.8434839Q142.120912040625,350.9116626,142.022343640625,350.984766Q141.923774940625,351.0578692,141.828912240625,351.135721Q141.734049540625,351.213573,141.643121240625,351.2959857Q141.552192640625,351.3783984,141.465417640625,351.4651735Q141.378642540625,351.5519485,141.296229840625,351.6428771Q141.213817140625,351.7338054,141.135965140625,351.8286681Q141.058113340625,351.9235308,140.985010140625,352.0220995Q140.911906740625,352.1206679,140.843728040625,352.2227046Q140.775549440625,352.3247414,140.712459540625,352.4300005Q140.649369240625,352.5352597,140.591520340625,352.6434879Q140.533671340625,352.7517161,140.481202140625,352.8626523Q140.428733340625,352.9735887,140.381771040625,353.0869658Q140.334808340625,353.2003429,140.29346614062501,353.3158879Q140.252123340625,353.4314327,140.216499840625,353.548867Q140.180876740625,353.6663014,140.151058240625,353.7853422Q140.121240140625,353.9043831,140.097298640625,354.02474362Q140.073357540625,354.14510417,140.055350740625,354.26649439Q140.037343940625,354.38788474,140.025315740625,354.51001233Q140.013287540625,354.63213998,140.007266040625,354.7547107Q140.001244540625,354.87728144,140.001244040625,355Q140.001244540625,355.12271856,140.007265540625,355.2452893Q140.013287040625,355.36786002,140.025315240625,355.48998767Q140.037343940625,355.61211526,140.055350340625,355.73350561Q140.073357540625,355.85489583,140.097298640625,355.97525638Q140.121239640625,356.0956169,140.151058240625,356.2146578Q140.180876240625,356.3336986,140.216499340625,356.451133Q140.252122840625,356.5685673,140.293465640625,356.6841122Q140.334808340625,356.7996571,140.381770640625,356.9130342Q140.428732840625,357.0264113,140.481202140625,357.1373477Q140.533670940625,357.2482839,140.591520340625,357.3565121Q140.649369240625,357.46474,140.712459540625,357.5699992Q140.775549440625,357.6752584,140.843728040625,357.7772951Q140.911906740625,357.8793321,140.985010140625,357.9779005Q141.058113340625,358.0764692,141.135965140625,358.1713319Q141.213817140625,358.2661946,141.296229840625,358.3571229Q141.378642540625,358.4480515,141.465417640625,358.5348265Q141.552192640625,358.6216016,141.643121240625,358.7040143Q141.734049540625,358.786427,141.828912240625,358.864279Q141.923774940625,358.9421308,142.022343640625,359.015234Q142.120912040625,359.0883374,142.222948740625,359.1565161Q142.324985540625,359.2246947,142.430244640625,359.2877846Q142.535503840625,359.3508749,142.643732040625,359.4087238Q142.751960240625,359.4665728,142.862896440625,359.519042Q142.973832840625,359.5715108,143.087209940625,359.6184731Q143.200587040625,359.6654358,143.316132040625,359.706778Q143.431676840625,359.7481208,143.549111140625,359.7837443Q143.666545540625,359.8193674,143.785586340625,359.8491859Q143.904627240625,359.879004,144.024987760625,359.9029455Q144.145348310625,359.9268866,144.266738530625,359.9448934Q144.388128880625,359.9629002,144.510256470625,359.9749284Q144.632384120625,359.9869566,144.754954840625,359.9929781Q144.877525580625,359.9989996,145.000244140625,359.9990001L145.000244140625,360Z"
      fill="var(--8-2)" />
    <rect x="130.000244140625" y="240" width="100" height="100" rx="15" fill="var(--8-0, #292929)" />
  </g>
  <g>
    <path
      d="M255.000244140625,360L325.000244140625,360L325.000244140625,359.9990001Q325.122963140625,359.9989996,325.245537140625,359.9929786Q325.368103140625,359.9869571,325.49023414062503,359.9749289Q325.612366140625,359.9629002,325.733749140625,359.9448938Q325.855133140625,359.9268866,325.975494140625,359.9029455Q326.095856140625,359.8790045,326.214897140625,359.8491859Q326.333938140625,359.8193679,326.451370140625,359.7837448Q326.568802140625,359.7481213,326.684349140625,359.7067785Q326.799896140625,359.6654358,326.913269140625,359.6184735Q327.026649140625,359.5715113,327.137588140625,359.519042Q327.24852014062503,359.4665732,327.35675014062497,359.4087238Q327.46497314062503,359.3508749,327.570228140625,359.2877846Q327.675491140625,359.2246947,327.777527140625,359.1565161Q327.879562140625,359.0883374,327.978134140625,359.015234Q328.076706140625,358.9421308,328.171570140625,358.864279Q328.266434140625,358.786427,328.357361140625,358.7040143Q328.448288140625,358.6216016,328.53506514062497,358.5348265Q328.621841140625,358.4480515,328.704254140625,358.3571229Q328.786667140625,358.2661946,328.864517140625,358.1713319Q328.942367140625,358.0764692,329.015472140625,357.9779005Q329.08857714062503,357.8793321,329.156753140625,357.7772954Q329.224930140625,357.6752586,329.288017140625,357.5699995Q329.351112140625,357.4647403,329.408966140625,357.3565121Q329.466812140625,357.2482839,329.519287140625,357.1373477Q329.571747140625,357.0264113,329.618713140625,356.9130342Q329.665672140625,356.7996571,329.707016140625,356.6841121Q329.748352140625,356.5685673,329.783981140625,356.451133Q329.819603140625,356.3336986,329.849426140625,356.2146578Q329.879242140625,356.0956169,329.903183140625,355.97525638Q329.927124140625,355.85489583,329.945129140625,355.73350561Q329.963135140625,355.61211526,329.975174140625,355.48998767Q329.98719814062497,355.36786002,329.993225140625,355.2452893Q329.999245140625,355.12271856,329.999245140625,355Q329.999245140625,354.87728144,329.993225140625,354.7547107Q329.98719814062497,354.63213998,329.975174140625,354.51001233Q329.963135140625,354.38788474,329.945129140625,354.26649439Q329.927124140625,354.14510417,329.903183140625,354.02474362Q329.879242140625,353.9043831,329.849418140625,353.7853422Q329.819603140625,353.6663014,329.783981140625,353.548867Q329.748352140625,353.4314327,329.707016140625,353.3158878Q329.665672140625,353.2003429,329.618713140625,353.0869658Q329.571747140625,352.9735887,329.51927914062503,352.8626523Q329.466812140625,352.7517161,329.408966140625,352.6434879Q329.351112140625,352.53526,329.288025140625,352.4300008Q329.224930140625,352.3247416,329.156753140625,352.2227049Q329.08857714062503,352.1206679,329.015472140625,352.0220995Q328.942367140625,351.9235308,328.864517140625,351.8286681Q328.786667140625,351.7338054,328.704254140625,351.6428771Q328.621841140625,351.5519485,328.53506514062497,351.4651735Q328.448288140625,351.3783984,328.357361140625,351.2959857Q328.266434140625,351.213573,328.171570140625,351.135721Q328.076706140625,351.0578692,327.978134140625,350.984766Q327.879570140625,350.9116626,327.777534140625,350.8434839Q327.675491140625,350.7753053,327.570236140625,350.7122154Q327.464981140625,350.6491251,327.35675014062497,350.5912762Q327.24852014062503,350.5334272,327.137588140625,350.480958Q327.026649140625,350.4284892,326.913269140625,350.3815269Q326.799896140625,350.3345642,326.684349140625,350.293222Q326.568802140625,350.2518792,326.451370140625,350.2162557Q326.333938140625,350.1806326,326.214897140625,350.1508141Q326.095856140625,350.120996,325.975494140625,350.0970545Q325.855133140625,350.0731134,325.733749140625,350.0551066Q325.612366140625,350.0370998,325.49023414062503,350.0250716Q325.368103140625,350.0130434,325.245537140625,350.0070219Q325.122963140625,350.0010004,325.000244140625,350.0009999L325.000244140625,350L255.000244140625,350L255.000244140625,350.0009999Q254.877525580625,350.0010004,254.754954840625,350.0070214Q254.632384120625,350.0130429,254.510256470625,350.0250711Q254.388128880625,350.0370998,254.266738530625,350.0551062Q254.145348310625,350.0731134,254.024987760625,350.0970545Q253.904627240625,350.1209955,253.785586340625,350.1508141Q253.666545540625,350.1806321,253.549111140625,350.2162552Q253.431676840625,350.2518787,253.316131940625,350.2932215Q253.200587040625,350.3345642,253.087209940625,350.3815265Q252.973832840625,350.4284887,252.862896440625,350.480958Q252.751960240625,350.5334268,252.643732040625,350.5912762Q252.535504140625,350.6491251,252.430244940625,350.7122154Q252.324985740625,350.7753053,252.222949040625,350.8434839Q252.120912040625,350.9116626,252.022343640625,350.984766Q251.923774940625,351.0578692,251.828912240625,351.135721Q251.734049540625,351.213573,251.643121240625,351.2959857Q251.552192640625,351.3783984,251.465417640625,351.4651735Q251.378642540625,351.5519485,251.296229840625,351.6428771Q251.213817140625,351.7338054,251.135965140625,351.8286681Q251.058113340625,351.9235308,250.985010140625,352.0220995Q250.911906740625,352.1206679,250.843728040625,352.2227046Q250.775549440625,352.3247414,250.712459540625,352.4300005Q250.649369240625,352.5352597,250.591520340625,352.6434879Q250.533671340625,352.7517161,250.481202140625,352.8626523Q250.428733340625,352.9735887,250.381771040625,353.0869658Q250.334808340625,353.2003429,250.29346614062501,353.3158879Q250.252123340625,353.4314327,250.216499840625,353.548867Q250.180876740625,353.6663014,250.151058240625,353.7853422Q250.121240140625,353.9043831,250.097298640625,354.02474362Q250.073357540625,354.14510417,250.055350740625,354.26649439Q250.037343940625,354.38788474,250.025315740625,354.51001233Q250.013287540625,354.63213998,250.007266040625,354.7547107Q250.001244540625,354.87728144,250.001244040625,355Q250.001244540625,355.12271856,250.007265540625,355.2452893Q250.013287040625,355.36786002,250.025315240625,355.48998767Q250.037343940625,355.61211526,250.055350340625,355.73350561Q250.073357540625,355.85489583,250.097298640625,355.97525638Q250.121239640625,356.0956169,250.151058240625,356.2146578Q250.180876240625,356.3336986,250.216499340625,356.451133Q250.252122840625,356.5685673,250.293465640625,356.6841122Q250.334808340625,356.7996571,250.381770640625,356.9130342Q250.428732840625,357.0264113,250.481202140625,357.1373477Q250.533670940625,357.2482839,250.591520340625,357.3565121Q250.649369240625,357.46474,250.712459540625,357.5699992Q250.775549440625,357.6752584,250.843728040625,357.7772951Q250.911906740625,357.8793321,250.985010140625,357.9779005Q251.058113340625,358.0764692,251.135965140625,358.1713319Q251.213817140625,358.2661946,251.296229840625,358.3571229Q251.378642540625,358.4480515,251.465417640625,358.5348265Q251.552192640625,358.6216016,251.643121240625,358.7040143Q251.734049540625,358.786427,251.828912240625,358.864279Q251.923774940625,358.9421308,252.022343640625,359.015234Q252.120912040625,359.0883374,252.222948740625,359.1565161Q252.324985540625,359.2246947,252.430244640625,359.2877846Q252.535503840625,359.3508749,252.643732040625,359.4087238Q252.751960240625,359.4665728,252.862896440625,359.519042Q252.973832840625,359.5715108,253.087209940625,359.6184731Q253.200587040625,359.6654358,253.316132040625,359.706778Q253.431676840625,359.7481208,253.549111140625,359.7837443Q253.666545540625,359.8193674,253.785586340625,359.8491859Q253.904627240625,359.879004,254.024987760625,359.9029455Q254.145348310625,359.9268866,254.266738530625,359.9448934Q254.388128880625,359.9629002,254.510256470625,359.9749284Q254.632384120625,359.9869566,254.754954840625,359.9929781Q254.877525580625,359.9989996,255.000244140625,359.9990001L255.000244140625,360Z"
      fill="var(--9-2)" />
    <path
      d="M359.999244240625,255.00001743513L360.000244140625,255.000017438617L360.000000040625,325.000015L359.999000040625,325.000015Q359.998999640625,325.122734,359.992978140625,325.2453Q359.986956640625,325.36787400000003,359.974928340625,325.490005Q359.962900140625,325.612137,359.944893340625,325.733521Q359.926886540625,325.85490400000003,359.902945540625,325.97526600000003Q359.879004440625,326.095627,359.849185940625,326.214668Q359.819367840625,326.33371,359.783744840625,326.451149Q359.748121240625,326.568581,359.706778040625,326.684128Q359.665435840625,326.799667,359.618473540625,326.91304Q359.571511240625,327.026421,359.519042040625,327.13736Q359.466573240625,327.248291,359.408724340625,327.356522Q359.350874940625,327.464745,359.287785040625,327.57000700000003Q359.224695240625,327.675262,359.156516040625,327.777298Q359.088336940625,327.879333,359.015234040625,327.977905Q358.942130840625,328.076477,358.864279240625,328.171341Q358.786427540625,328.26619700000003,358.704014740625,328.357124Q358.621602040625,328.448051,358.534826740625,328.534828Q358.448051440625,328.621605,358.357122940625,328.704025Q358.266194540625,328.786438,358.171331840625,328.864288Q358.076468940625,328.942139,357.977900540625,329.015236Q357.879332040625,329.08833300000003,357.777295340625,329.156517Q357.675258640625,329.224693,357.569999240625,329.287781Q357.464740240625,329.35087599999997,357.356512340625,329.40873Q357.248283840625,329.466568,357.137347740625,329.519043Q357.026411540625,329.571503,356.913034340625,329.618469Q356.799657140625,329.665428,356.684112340625,329.706772Q356.568567240625,329.748108,356.451133040625,329.783737Q356.333698640625,329.819359,356.214657740625,329.849182Q356.095616940625,329.878998,355.975256440625,329.902939Q355.854895890625,329.92688,355.733505610625,329.944885Q355.612115320625,329.962891,355.489987670625,329.97493Q355.367860020625,329.98695399999997,355.245289300625,329.992981Q355.122718550625,329.999001,355.000000000005,329.999001Q354.877281430625,329.999001,354.754710700625,329.992981Q354.632139980625,329.98695399999997,354.510012330625,329.97493Q354.387884740625,329.962891,354.266494390625,329.944885Q354.145104110625,329.92688,354.024743560625,329.902939Q353.904382940625,329.878998,353.785342140625,329.849174Q353.666301240625,329.819359,353.548866940625,329.783737Q353.431432740625,329.748108,353.315887940625,329.706772Q353.200342940625,329.665428,353.086965840625,329.618469Q352.973588740625,329.571503,352.862652540625,329.51903500000003Q352.751716140625,329.466568,352.643488140625,329.408722Q352.535260240625,329.350868,352.430000740625,329.287781Q352.324741840625,329.224686,352.222704840625,329.156509Q352.120668140625,329.08833300000003,352.022099540625,329.015228Q351.923531040625,328.942123,351.828668140625,328.864273Q351.733805640625,328.786423,351.642877140625,328.70401Q351.551948540625,328.621597,351.465173440625,328.53482099999997Q351.378398440625,328.448044,351.295985740625,328.357117Q351.213572940625,328.26619,351.135721240625,328.171326Q351.057869440625,328.076462,350.984766040625,327.97789Q350.911663040625,327.879326,350.843483940625,327.77729Q350.775305240625,327.675247,350.712215440625,327.569992Q350.649125140625,327.464737,350.591276140625,327.35650599999997Q350.533427240625,327.24827600000003,350.480957940625,327.137344Q350.428489240625,327.026405,350.381526940625,326.913025Q350.334564240625,326.799652,350.293221940625,326.684105Q350.251878740625,326.568558,350.216255640625,326.451126Q350.180632640625,326.333694,350.150814540625,326.214653Q350.120996440625,326.095612,350.097054940625,325.97525Q350.073113940625,325.854889,350.055107140625,325.733505Q350.037100840625,325.612122,350.025071640625,325.48999000000003Q350.013042940625,325.367859,350.007021440625,325.245293Q350.000999440625,325.122719,350.000999940625,325L350.000000040625,324.999985L350.000244140625,254.999982561383L350.001244040625,254.99998256487Q350.001244540625,254.87726428,350.007266040625,254.75469384Q350.013288040625,254.63212341,350.025316740625,254.50999606Q350.037345840625,254.38786876,350.055352640625,254.26647878Q350.073359440625,254.14508879,350.097301440625,254.02472854Q350.121243040625,253.9043684,350.151061540625,253.7853279Q350.180880040625,253.6662874,350.216503640625,253.5488534Q350.252127640625,253.4314194,350.293470340625,253.3158748Q350.334813140625,253.2003304,350.381775840625,253.0869536Q350.428738640625,252.9735768,350.481207340625,252.8626409Q350.533676140625,252.7517047,350.591525540625,252.643477Q350.649374940625,252.5352492,350.712464840625,252.4299903Q350.775554640625,252.3247316,350.843733740625,252.2226954Q350.911912940625,252.1206589,350.985015840625,252.0220909Q351.058119340625,251.9235227,351.135971040625,251.8286605Q351.213822840625,251.733798,351.296235840625,251.6428699Q351.378648740625,251.5519419,351.465423840625,251.4651673Q351.552198840625,251.3783927,351.643127440625,251.2959802Q351.734055540625,251.2135677,351.828918240625,251.135716Q351.923780940625,251.0578647,352.022349340625,250.9847617Q352.120917540625,250.9116583,352.222954240625,250.8434801Q352.324990740625,250.7753019,352.430249740625,250.7122116Q352.535508840625,250.6491222,352.643736840625,250.5912733Q352.751964840625,250.5334244,352.862900940625,250.4809556Q352.973836940625,250.4284868,353.087214040625,250.3815246Q353.200590940625,250.3345623,353.316135640625,250.29322Q353.431680240625,250.2518778,353.549114240625,250.2162542Q353.666548440625,250.1806316,353.785588940625,250.1508131Q353.904629540625,250.1209955,354.024989840625,250.097054Q354.145350100625,250.073113,354.266740140625,250.0551066Q354.388130190625,250.0370998,354.510257540625,250.0250716Q354.632384930625,250.0130434,354.754955380625,250.0070219Q354.877525860625,250.0010004,355.000244140625,250.0009999Q355.122962700625,250.0010004,355.245533440625,250.0070214Q355.368104160625,250.0130429,355.490231810625,250.0250711Q355.612359400625,250.0370998,355.733749750625,250.0551062Q355.855139970625,250.0731134,355.975500520625,250.0970545Q356.095861040625,250.1209955,356.214901940625,250.1508141Q356.333942740625,250.1806321,356.451377140625,250.2162552Q356.568811440625,250.2518787,356.684356340625,250.2932215Q356.799901240625,250.3345642,356.913278340625,250.3815265Q357.026655440625,250.4284887,357.137591840625,250.480958Q357.248528040625,250.5334268,357.356756240625,250.5912762Q357.464984140625,250.6491251,357.570243340625,250.7122154Q357.675502540625,250.7753053,357.777539240625,250.8434839Q357.879576240625,250.9116626,357.978144640625,250.984766Q358.076713340625,251.0578692,358.171576040625,251.135721Q358.266438740625,251.213573,358.357367040625,251.2959857Q358.448295640625,251.3783984,358.535070640625,251.4651735Q358.621845740625,251.5519485,358.704258440625,251.6428771Q358.786671140625,251.7338054,358.864523140625,251.8286681Q358.942374940625,251.9235308,359.015478140625,252.0220995Q359.088581540625,252.1206679,359.156760240625,252.2227046Q359.224938840625,252.3247414,359.288028740625,252.4300005Q359.351119040625,252.5352597,359.408967940625,252.6434879Q359.466816940625,252.7517161,359.519286140625,252.8626523Q359.571754940625,252.9735887,359.618717240625,253.0869658Q359.665679940625,253.2003429,359.707022140625,253.3158879Q359.748364940625,253.4314327,359.783988440625,253.548867Q359.819611540625,253.6663014,359.849430040625,253.7853422Q359.879248140625,253.9043831,359.903189640625,254.02474362Q359.927130740625,254.14510417,359.945137540625,254.26649439Q359.963144340625,254.38788474,359.975172540625,254.51001233Q359.987200740625,254.63213998,359.993222240625,254.7547107Q359.999243740625,254.87728144,359.999244240625,255L359.999244240625,255.00001743513Z"
      fill="var(--9-1)" />
    <rect x="240.000244140625" y="240" width="100" height="100" rx="15" fill="var(--9-0, #292929)" />
  </g>
</svg>
