<svg xmlns="http://www.w3.org/2000/svg"
  xmlns:xlink="http://www.w3.org/1999/xlink" fill="none" version="1.1" viewBox="0 0 470 422.000244140625">
  <g>
    <g transform="matrix(-1,0,0,1,940.0000610351562,0)">
      <path d="M485.6511525175781,268.677112125C477.90902181757815,266.206005325,470.00121970927813,271.983720825,470.0023838125781,280.110650625L470.0126794565781,351.98741962500003C470.0134273255781,357.208495625,473.38999221757814,361.82993362499997,478.3638553175781,363.417503625L511.6926425175781,374.055440625C519.4347805175781,376.526600625,527.3426205175781,370.74888062499997,527.3414645175782,362.621932625L527.3312455175782,290.745014625C527.3305015175781,285.523906625,523.9539105175782,280.902454625,518.9800145175782,279.314903625L485.6511525175781,268.677112125Z" fill="var(--3-9, #292929)" />
    </g>
    <g transform="matrix(-1,0,0,1,806.1113891601562,0)">
      <path d="M418.7068165800781,290.65123321875C410.96468588007815,288.18012641875,403.05688377177813,293.95784191875,403.0580478750781,302.08477171875L403.0683435190781,373.96154071875003C403.0690913880781,379.18261671875,406.44565628007814,383.80405471874997,411.4195193800781,385.39162471875L444.7483065800781,396.02956171875C452.49044458007813,398.50072171875,460.3982845800781,392.72300171874997,460.3971285800781,384.59605371875L460.3869095800781,312.71913571875C460.3861655800781,307.49802771875,457.00957458007815,302.87657571875,452.0356785800781,301.28902471875L418.7068165800781,290.65123321875Z" fill="var(--3-8, #292929)" />
    </g>
    <g transform="matrix(-1,0,0,1,672.2232055664062,0)">
      <path d="M351.7627247832031,311.626330875C344.02059408320315,309.155224075,336.11279197490313,314.932939575,336.1139560782031,323.059869375L336.1242517222031,394.93663837500003C336.1249995912031,400.157714375,339.50156448320314,404.77915237499997,344.4754275832031,406.366722375L377.8042147832031,417.004659375C385.54635278320313,419.475819375,393.4541927832031,413.69809937499997,393.4530367832031,405.571151375L393.4428177832031,333.694233375C393.4420737832031,328.473125375,390.06548278320315,323.851673375,385.0915867832031,322.264122375L351.7627247832031,311.626330875Z" fill="var(--3-7, #292929)" />
    </g>
    <g transform="matrix(-1,0,0,1,940.0000610351562,0)">
      <path d="M485.6511525175781,161.8050418125C477.90902181757815,159.3339350125,470.00121970927813,165.1116505125,470.0023838125781,173.2385803125L470.0126794565781,245.1153493125C470.0134273255781,250.3364253125,473.38999221757814,254.9578633125,478.3638553175781,256.5454333125L511.6926425175781,267.1833703125C519.4347805175781,269.6545303125,527.3426205175781,263.87681031249997,527.3414645175782,255.7498623125L527.3312455175782,183.8729443125C527.3305015175781,178.6518363125,523.9539105175782,174.0303843125,518.9800145175782,172.4428333125L485.6511525175781,161.8050418125Z" fill="var(--3-6, #292929)" />
    </g>
    <g transform="matrix(-1,0,0,1,806.1113891601562,0)">
      <path d="M418.7068165800781,183.778674625C410.96468588007815,181.307567825,403.05688377177813,187.085283325,403.0580478750781,195.212213125L403.0683435190781,267.08898212500003C403.0690913880781,272.310058125,406.44565628007814,276.93149612499997,411.4195193800781,278.519066125L444.7483065800781,289.157003125C452.49044458007813,291.628163125,460.3982845800781,285.85044312499997,460.3971285800781,277.723495125L460.3869095800781,205.846577125C460.3861655800781,200.625469125,457.00957458007815,196.004017125,452.0356785800781,194.416466125L418.7068165800781,183.778674625Z" fill="var(--3-5, #292929)" />
    </g>
    <g transform="matrix(-1,0,0,1,672.2232055664062,0)">
      <path d="M351.7627247832031,204.75377228125C344.02059408320315,202.28266548125,336.11279197490313,208.06038098125,336.1139560782031,216.18731078125L336.1242517222031,288.06407978125003C336.1249995912031,293.28515578125,339.50156448320314,297.90659378124997,344.4754275832031,299.49416378125L377.8042147832031,310.13210078125C385.54635278320313,312.60326078125,393.4541927832031,306.82554078124997,393.4530367832031,298.69859278125L393.4428177832031,226.82167478125C393.4420737832031,221.60056678125,390.06548278320315,216.97911478125,385.0915867832031,215.39156378125L351.7627247832031,204.75377228125Z" fill="var(--3-4, #292929)" />
    </g>
    <g transform="matrix(-1,0,0,1,940.0000610351562,0)">
      <path d="M485.6511525175781,53.93345978125C477.90902181757815,51.46235298125,470.00121970927813,57.24006848125,470.0023838125781,65.36699828125L470.0126794565781,137.24376728125C470.0134273255781,142.46484328125,473.38999221757814,147.08628128125,478.3638553175781,148.67385128125L511.6926425175781,159.31178828125002C519.4347805175781,161.78294828125001,527.3426205175781,156.00522828125,527.3414645175782,147.87828028125L527.3312455175782,76.00136228125C527.3305015175781,70.78025428125,523.9539105175782,66.15880228125,518.9800145175782,64.57125128125L485.6511525175781,53.93345978125Z" fill="var(--3-3, #292929)" />
    </g>
    <g transform="matrix(-1,0,0,1,806.1113891601562,0)">
      <path d="M418.7068165800781,75.90709259375C410.96468588007815,73.43598579375,403.05688377177813,79.21370129375,403.0580478750781,87.34063109375L403.0683435190781,159.21740009375C403.0690913880781,164.43847609375,406.44565628007814,169.05991409375,411.4195193800781,170.64748409375L444.7483065800781,181.28542109375002C452.49044458007813,183.75658109375001,460.3982845800781,177.97886109375,460.3971285800781,169.85191309375L460.3869095800781,97.97499509375C460.3861655800781,92.75388709375,457.00957458007815,88.13243509375,452.0356785800781,86.54488409375L418.7068165800781,75.90709259375Z" fill="var(--3-2, #292929)" />
    </g>
    <g transform="matrix(-1,0,0,1,672.2232055664062,0)">
      <path d="M351.7627247832031,96.88219025C344.02059408320315,94.41108345,336.11279197490313,100.18879895,336.1139560782031,108.31572875L336.1242517222031,180.19249775C336.1249995912031,185.41357375,339.50156448320314,190.03501175,344.4754275832031,191.62258175L377.8042147832031,202.26051875000002C385.54635278320313,204.73167875000001,393.4541927832031,198.95395875,393.4530367832031,190.82701075L393.4428177832031,118.95009275C393.4420737832031,113.72898475,390.06548278320315,109.10753275,385.0915867832031,107.51998175L351.7627247832031,96.88219025Z" fill="var(--3-1, #292929)" />
    </g>
  </g>

  <g>
    <path d="M185.84521484375,398.48377971875C185.84521484375,404.38693271875,190.13858794375,409.41332971875,195.96915284375,410.33621971875L254.89707984375002,419.66362171875C262.18201484375,420.81672171875,268.77313984375,415.18681171875,268.77313984375,407.81117971875L268.77313984375,335.00067471875C268.77313984375,329.09751871875,264.47975884375,324.07111871875,258.64919284375003,323.14823171875L199.72127184375,313.82087231875C192.43633894375,312.66778251875,185.84521484375,318.29768991875,185.84521484375,325.67331671875L185.84521484375,398.48377971875Z" fill="var(--2-9, #292929)" />
    <path d="M92.92236328125,383.9911039375C92.92236328125,389.8942569375,97.21573638125,394.9206539375,103.04630128125,395.8435439375L161.97422828125002,405.1709459375C169.25916328124998,406.3240459375,175.85028828125002,400.6941359375,175.85028828125002,393.3185039375L175.85028828125002,320.5079989375C175.85028828125002,314.6048429375,171.55690728125,309.5784429375,165.72634128125,308.6555559375L106.79842028125,299.3281965375C99.51348738125,298.1751067375,92.92236328125,303.8050141375,92.92236328125,311.1806409375L92.92236328125,383.9911039375Z" fill="var(--2-8, #292929)" />
    <path d="M0,369.0086820625C0,374.9118350625,4.2933731,379.9382320625,10.123938,380.8611220625L69.051865,390.1885240625C76.3368,391.3416240625,82.927925,385.7117140625,82.927925,378.3360820625L82.927925,305.5255770625C82.927925,299.6224210625,78.634544,294.5960210625,72.803978,293.6731340625L13.876057,284.3457746625C6.5911241,283.1926848625,0,288.8225922625,0,296.1982190625L0,369.0086820625Z" fill="var(--2-7, #292929)" />
    <path d="M185.84521484375,291.611221125C185.84521484375,297.514374125,190.13858794375,302.540771125,195.96915284375,303.463661125L254.89707984375002,312.791063125C262.18201484375,313.944163125,268.77313984375,308.314253125,268.77313984375,300.938621125L268.77313984375,228.128116125C268.77313984375,222.224960125,264.47975884375,217.198560125,258.64919284375003,216.275673125L199.72127184375,206.948313725C192.43633894375,205.795223925,185.84521484375,211.425131325,185.84521484375,218.800758125L185.84521484375,291.611221125Z" fill="var(--2-6, #292929)" />
    <path d="M92.92236328125,277.11854534375C92.92236328125,283.02169834375,97.21573638125,288.04809534375,103.04630128125,288.97098534375L161.97422828125002,298.29838734375C169.25916328124998,299.45148734375,175.85028828125002,293.82157734375,175.85028828125002,286.44594534375L175.85028828125002,213.63544034375C175.85028828125002,207.73228434375,171.55690728125,202.70588434375,165.72634128125,201.78299734375L106.79842028125,192.45563794375C99.51348738125,191.30254814375,92.92236328125,196.93245554375,92.92236328125,204.30808234375L92.92236328125,277.11854534375Z" fill="var(--2-5, #292929)" />
    <path d="M0,262.13612346875C0,268.03927646875,4.2933731,273.06567346875,10.123938,273.98856346875L69.051865,283.31596546875C76.3368,284.46906546875,82.927925,278.83915546875,82.927925,271.46352346875L82.927925,198.65301846875C82.927925,192.74986246875,78.634544,187.72346246875,72.803978,186.80057546875L13.876057,177.47321606875C6.5911241,176.32012626875,0,181.95003366875,0,189.32566046875L0,262.13612346875Z" fill="var(--2-4, #292929)" />
    <path d="M185.84521484375,184.249893C185.84521484375,190.15304600000002,190.13858794375,195.179443,195.96915284375,196.102333L254.89707984375002,205.429735C262.18201484375,206.582835,268.77313984375,200.952925,268.77313984375,193.577293L268.77313984375,120.76678799999999C268.77313984375,114.863632,264.47975884375,109.837232,258.64919284375003,108.914345L199.72127184375,99.5869856C192.43633894375,98.4338958,185.84521484375,104.0638032,185.84521484375,111.43943L185.84521484375,184.249893Z" fill="var(--2-3, #292929)" />
    <path d="M92.92236328125,169.7567289375C92.92236328125,175.65988193750002,97.21573638125,180.6862789375,103.04630128125,181.6091689375L161.97422828125002,190.9365709375C169.25916328124998,192.0896709375,175.85028828125002,186.4597609375,175.85028828125002,179.0841289375L175.85028828125002,106.27362393749999C175.85028828125002,100.3704679375,171.55690728125,95.3440679375,165.72634128125,94.4211809375L106.79842028125,85.0938215375C99.51348738125,83.9407317375,92.92236328125,89.5706391375,92.92236328125,96.9462659375L92.92236328125,169.7567289375Z" fill="var(--2-2, #292929)" />
    <path d="M0,154.77479534375C0,160.67794834375002,4.2933731,165.70434534375,10.123938,166.62723534375L69.051865,175.95463734375C76.3368,177.10773734375,82.927925,171.47782734375,82.927925,164.10219534375L82.927925,91.29169034374999C82.927925,85.38853434375,78.634544,80.36213434375,72.803978,79.43924734375L13.876057,70.11188794375C6.5911241,68.95879814375,0,74.58870554375,0,81.96433234375L0,154.77479534375Z" fill="var(--2-1, #292929)" />
  </g>

  <g>
    <path d="M202.882242453125,86.4140555C199.870300253125,87.3757865,200.202875153125,91.74070950000001,203.325755453125,92.23501350000001L273.065719453125,103.2737925C273.528144453125,103.3469865,274.001274453125,103.3109355,274.44727345312504,103.1685255L319.180034453125,88.8848705C322.191974453125,87.9231265,321.859394453125,83.5582085,318.736504453125,83.06391550000001L248.996456453125,72.02537505C248.534038453125,71.952183262,248.060909453125,71.988232851,247.614921453125,72.13063958L202.882242453125,86.4140555Z" fill="var(--1-9, #292929)" />
    <path d="M109.95963503125,72.4306570625C106.94769283125,73.3923880625,107.28026773125,77.75731106250001,110.40314803125,78.25161506250001L180.14311203124998,89.2903940625C180.60553703124998,89.3635880625,181.07866703125,89.3275370625,181.52466603125,89.1851270625L226.25742703125,74.9014720625C229.26936703125,73.9397280625,228.93678703125,69.5748100625,225.81389703125,69.08051706250001L156.07384903125,58.0419766125C155.61143103125,57.9687848245,155.13830203125,58.0048344135,154.69231403125,58.1472411425L109.95963503125,72.4306570625Z" fill="var(--1-8, #292929)" />
    <path d="M17.036783468750002,57.44872346875C14.02484126875,58.410454468750004,14.35741616875,62.77537746875,17.480296468749998,63.26968146875L87.22026046875,74.30846046875C87.68268546875,74.38165446875,88.15581546875,74.34560346875,88.60181446875,74.20319346875L133.33457546875,59.919538468750005C136.34651546875,58.957794468749995,136.01393546875,54.59287646875,132.89104546875,54.09858346875L63.15099746875,43.06004301875C62.68857946875,42.98685123075,62.21545046875,43.02290081975,61.76946246875,43.16530754875L17.036783468750002,57.44872346875Z" fill="var(--1-7, #292929)" />
    <path d="M269.82633425,65.439446125C266.81439205,66.401177125,267.14696695,70.76610012500001,270.26984725,71.26040412500001L340.00981125,82.299183125C340.47223625,82.372377125,340.94536625,82.336326125,341.39136525000004,82.193916125L386.12412625,67.910261125C389.13606625,66.948517125,388.80348625,62.583599125,385.68059625,62.089306125L315.94054825,51.050765675C315.47813025,50.977573887,315.00500125,51.013623476,314.55901325,51.156030205L269.82633425,65.439446125Z" fill="var(--1-6, #292929)" />
    <path d="M176.903726828125,51.4560476875C173.891784628125,52.417778687500004,174.224359528125,56.7827016875,177.347239828125,57.2770056875L247.08720382812498,68.3157846875C247.54962882812498,68.3889786875,248.022758828125,68.3529276875,248.468757828125,68.2105176875L293.201518828125,53.926862687500005C296.213458828125,52.965118687499995,295.880878828125,48.6002006875,292.757988828125,48.1059076875L223.017940828125,37.0673672375C222.555522828125,36.9941754495,222.082393828125,37.0302250385,221.636405828125,37.1726317675L176.903726828125,51.4560476875Z" fill="var(--1-5, #292929)" />
    <path d="M83.98111940625,36.4736258125C80.96917720625,37.435356812500004,81.30175210625,41.8002798125,84.42463240625,42.2945838125L154.16459640624998,53.3333628125C154.62702140624998,53.4065568125,155.10015140625,53.3705058125,155.54615040625,53.2280958125L200.27891140625,38.944440812500005C203.29085140625,37.982696812499995,202.95827140625,33.6177788125,199.83538140625,33.1234858125L130.09533340625,22.0849453625C129.63291540625,22.0117535745,129.15978640625,22.0478031635,128.71379840625,22.1902098925L83.98111940625,36.4736258125Z" fill="var(--1-4, #292929)" />
    <path d="M336.7706701875,43.46532503125C333.7587279875,44.427056031250004,334.0913028875,48.79197903125,337.2141831875,49.28628303125L406.9541471875,60.32506203125C407.4165721875,60.39825603125,407.8897021875,60.36220503125,408.33570118750004,60.21979503125L453.0684621875,45.936140031250005C456.0804021875,44.974396031249995,455.7478221875,40.60947803125,452.6249321875,40.11518503125L382.8848841875,29.07664458125C382.4224661875,29.00345279325,381.9493371875,29.03950238225,381.5033491875,29.18190911125L336.7706701875,43.46532503125Z" fill="var(--1-3, #292929)" />
    <path d="M243.848062765625,29.48192659375C240.836120565625,30.44365759375,241.168695465625,34.80858059375,244.291575765625,35.30288459375L314.031539765625,46.34166359375C314.493964765625,46.41485759375,314.967094765625,46.37880659375,315.41309376562504,46.23639659375L360.145854765625,31.95274159375C363.157794765625,30.99099759375,362.825214765625,26.62607959375,359.702324765625,26.13178659375L289.962276765625,15.09324614375C289.499858765625,15.02005435575,289.026729765625,15.05610394475,288.580741765625,15.19851067375L243.848062765625,29.48192659375Z" fill="var(--1-2, #292929)" />
    <path d="M150.92545534375,14.499993C147.91351314375,15.461724,148.24608804375,19.826647,151.36896834375,20.320951L221.10893234374998,31.35973C221.57135734374998,31.432924,222.04448734375,31.396873,222.49048634375,31.254463L267.22324734375,16.970808C270.23518734375,16.009064,269.90260734375,11.644146,266.77971734375,11.149853L197.03966934375,0.11131255C196.57725134375,0.038120762,196.10412234375,0.074170351,195.65813434375,0.21657708L150.92545534375,14.499993Z" fill="var(--1-1, #292929)" />
  </g>

  <g>
    <path d="M206.71672057421875,165.834045828125C204.62144470421876,165.524779828125,203.49771118421876,163.200408828125,204.55670166421876,161.366195828125L223.16023257421875,129.143920928125C224.39070157421875,127.012680058125,227.52247657421876,127.187919618125,228.50750757421875,129.443115228125L244.83346557421874,166.820922828125C245.77648957421874,168.979934828125,243.97694357421875,171.333587828125,241.64622457421876,170.989577828125L232.49996957421874,169.639606828125L232.49996957421874,389.500028828125L232.49847457421876,389.500028828125C232.49847457421876,393.641358828125,229.14128157421874,396.998538828125,224.99996957421874,396.998538828125C220.85865757421874,396.998538828125,217.50146457421874,393.641358828125,217.50146457421874,389.500028828125L217.49996957421874,389.500028828125L217.49996957421874,167.425632828125L206.71672057421875,165.834045828125Z" fill="var(--2-963)" />
    <path d="M232.84878496679687,347.07437484375L232.84878496679687,124.99996944375L232.84728996679686,124.99996944375C232.84728996679686,120.85865784375,229.49009696679687,117.50146484375,225.34878496679687,117.50146484375C221.20747396679687,117.50146484375,217.85028096679687,120.85865784375,217.85028096679687,124.99996944375L217.84878496679687,124.99996944375L217.84878496679687,344.86039484375L208.70252986679688,343.51043484375C206.37181086679686,343.16641484375,204.57226562679688,345.52005484375,205.5152893067969,347.67907484374996L221.84124796679689,385.05688484375C222.82627896679688,387.31207484375,225.95805396679688,387.48730484375,227.18852196679688,385.35607484375L245.79205296679686,353.13378484375C246.85104396679688,351.29959484375,245.72730996679687,348.97521484375,243.63203396679688,348.66595484375L232.84878496679687,347.07437484375Z" fill="var(--2-369)" />
    <path d="M325.66461165625003,161.2311709375C327.57693465625,160.6173549375,328.35772665625,158.3343809375,327.22183265625,156.6780399375L310.08258065625,131.6856079375C308.71887165625,129.6970367475,305.68518065625,130.0483703575,304.81207265625,132.2960052375L291.27880859625,167.1339109375C290.36468505625,169.48702993749998,292.58847045625,171.84820593749998,294.99209595625,171.0766749375L302.49941265625,168.66691993749998L302.49942065625,170.50003093750001L302.49942065625,387.0000259375L302.50091565625,387.0000259375C302.50091565625,391.1413559375,305.85812365625,394.4985359375,309.99942065625,394.4985359375C314.14071665625,394.4985359375,317.49792465625,391.1413559375,317.49792465625,387.0000259375L317.49942065625,387.0000259375L317.49942065625,170.50003093750001L317.49944665625003,163.8520889375L325.66461165625003,161.2311709375Z" fill="var(--3-741)" />
    <path d="M301.000553421875,350.14791484374996L301.000579421875,343.49996484375004L301.000579421875,126.99996944375L301.002075421875,126.99996944375C301.002075421875,122.85865784375,304.359283421875,119.50146484375,308.500579421875,119.50146484375C312.641876421875,119.50146484375,315.999084421875,122.85865784375,315.999084421875,126.99996944375L316.000579421875,126.99996944375L316.000579421875,343.49996484375004L316.000587421875,345.33309484375L323.50790442187497,342.92334484375C325.911529421875,342.15179484375,328.135315421875,344.51297484375,327.221191421875,346.86608484375L313.687927421875,381.70401484375C312.814819421875,383.95162484375,309.781128421875,384.30297484375,308.417419421875,382.31439484375L291.278167721875,357.32196484375004C290.142272951875,355.66561484375,290.923065181875,353.38266484375004,292.835388221875,352.76882484375L301.000553421875,350.14791484374996Z" fill="var(--3-147)" />
    <path d="M391.66461165625003,141.2311779375C393.57693465625,140.6173549375,394.35772665625,138.3343809375,393.22183265625,136.6780319375L376.08258065625,111.6856155375C374.71887165625,109.6970291175,371.68518065625,110.0483627275,370.81207265625,112.2959976375L357.27880859625,147.1339189375C356.36468505625,149.4870379375,358.58847045625,151.84820593749998,360.99209595625,151.0766749375L368.49941265625,148.66691993749998L368.49942065625,150.50003093750001L368.49942065625,367.0000259375L368.50091565625,367.0000259375C368.50091565625,371.1413559375,371.85812365625,374.4985359375,375.99942065625,374.4985359375C380.14071665625,374.4985359375,383.49792465625,371.1413559375,383.49792465625,367.0000259375L383.49942065625,367.0000259375L383.49942065625,150.50003093750001L383.49944665625003,143.8520969375L391.66461165625003,141.2311779375Z" fill="var(--3-852)" />
    <path d="M367.000553421875,330.14791484374996L367.000579421875,323.49996484375004L367.000579421875,106.99996944375L367.002075421875,106.99996944375C367.002075421875,102.85865784375,370.359283421875,99.50146484375,374.500579421875,99.50146484375C378.641876421875,99.50146484375,381.999084421875,102.85865784375,381.999084421875,106.99996944375L382.000579421875,106.99996944375L382.000579421875,323.49996484375004L382.000587421875,325.33309484375L389.50790442187497,322.92334484375C391.911529421875,322.15179484375,394.135315421875,324.51297484375,393.221191421875,326.86608484375L379.687927421875,361.70401484375C378.814819421875,363.95162484375,375.781128421875,364.30297484375,374.417419421875,362.31439484375L357.278167721875,337.32196484375004C356.142272951875,335.66561484375,356.923065181875,333.38266484375004,358.835388221875,332.76882484375L367.000553421875,330.14791484374996Z" fill="var(--3-258)" />
    <path d="M458.66461165625003,119.23117793750001C460.57693465625,118.6173549375,461.35772665625,116.3343809375,460.22183265625,114.6780319375L443.08258065625,89.6856155375C441.71887165625,87.6970291175,438.68518065625,88.0483627275,437.81207265625,90.2959976375L424.27880859625,125.1339189375C423.36468505625,127.48703793749999,425.58847045625,129.84820593749998,427.99209595625,129.0766749375L435.49941265625,126.6669199375L435.49942065625,128.50003093750001L435.49942065625,345.0000259375L435.50091565625,345.0000259375C435.50091565625,349.1413559375,438.85812365625,352.4985359375,442.99942065625,352.4985359375C447.14071665625,352.4985359375,450.49792465625,349.1413559375,450.49792465625,345.0000259375L450.49942065625,345.0000259375L450.49942065625,128.50003093750001L450.49944665625003,121.8520969375L458.66461165625003,119.23117793750001Z" fill="var(--3-963)" />
    <path d="M435.000553421875,308.14791484374996L435.000579421875,301.49996484375004L435.000579421875,84.99996944375L435.002075421875,84.99996944375C435.002075421875,80.85865784375,438.359283421875,77.50146484375,442.500579421875,77.50146484375C446.641876421875,77.50146484375,449.999084421875,80.85865784375,449.999084421875,84.99996944375L450.000579421875,84.99996944375L450.000579421875,301.49996484375004L450.000587421875,303.33309484375L457.50790442187497,300.92334484375C459.911529421875,300.15179484375,462.135315421875,302.51297484375,461.221191421875,304.86608484375L447.687927421875,339.70401484375C446.814819421875,341.95162484375,443.781128421875,342.30297484375,442.417419421875,340.31439484375L425.278167721875,315.32196484375004C424.142272951875,313.66561484375,424.923065181875,311.38266484375004,426.835388221875,310.76882484375L435.000553421875,308.14791484374996Z" fill="var(--3-369)" />
    <path d="M113.367416375,150.834045828125C111.272140505,150.524779828125,110.148401265,148.200408828125,111.207389835,146.366195828125L129.810928375,114.143920928125C131.041397375,112.012680058125,134.173168375,112.187919618125,135.158203375,114.443122828125L151.484169375,151.820922828125C152.427185375,153.979934828125,150.627643375,156.333587828125,148.296924375,155.989577828125L139.150692375,154.639609828125L139.150692375,374.500028828125L139.14919237499998,374.500028828125C139.14919237499998,378.641358828125,135.791999375,381.998538828125,131.650692375,381.998538828125C127.509384375,381.998538828125,124.152193375,378.641358828125,124.152193375,374.500028828125L124.150692375,374.500028828125L124.150692375,152.425635828125L113.367416375,150.834045828125Z" fill="var(--2-852)" />
    <path d="M139.4993897324219,331.07437484375L139.4993897324219,108.99996944375L139.49789473242188,108.99996944375C139.49789473242188,104.85865784375,136.14070173242186,101.50146484375,131.9993897324219,101.50146484375C127.85808573242187,101.50146484375,124.50089273242187,104.85865784375,124.50089273242187,108.99996944375L124.49938973242188,108.99996944375L124.49938973242188,328.86039484375L115.35316463242188,327.51043484375C113.02244563242188,327.16641484375,111.22290039242188,329.52005484375,112.16591644242187,331.67907484374996L128.49188273242189,369.05688484375C129.47691373242188,371.31207484375,132.60868873242188,371.48730484375,133.83915673242188,369.35607484375L152.44268773242186,337.13378484375C153.50167873242188,335.29959484375,152.37794473242187,332.97521484375,150.28266873242188,332.66595484375L139.4993897324219,331.07437484375Z" fill="var(--2-258)" />
    <path d="M20.3675384453125,135.834045828125C18.2722625753125,135.524779828125,17.1485233353125,133.200408828125,18.2075119053125,131.366195828125L36.8110504453125,99.143920928125C38.0415194453125,97.012680058125,41.1732904453125,97.187919618125,42.1583254453125,99.443122828125L58.4842914453125,136.820922828125C59.4273074453125,138.979934828125,57.6277654453125,141.333587828125,55.2970464453125,140.989577828125L46.1508144453125,139.639609828125L46.1508144453125,359.500028828125L46.1493144453125,359.500028828125C46.1493144453125,363.641358828125,42.7921214453125,366.998538828125,38.6508144453125,366.998538828125C34.509506445312496,366.998538828125,31.1523154453125,363.641358828125,31.1523154453125,359.500028828125L31.1508144453125,359.500028828125L31.1508144453125,137.425635828125L20.3675384453125,135.834045828125Z" fill="var(--2-741)" />
    <path d="M46.499515710083,316.07437484375L46.499515710083,93.99996944375L46.49801671008301,93.99996944375C46.49801671008301,89.85865784375,43.14082371008301,86.50146484375,38.999515710083,86.50146484375C34.85820771008301,86.50146484375,31.501014710083005,89.85865784375,31.501014710083005,93.99996944375L31.49951571008301,93.99996944375L31.49951571008301,313.86039484375L22.353282910083006,312.51043484375C20.022563910083008,312.16641484375,18.22302246008301,314.52005484375,19.16603851008301,316.67907484374996L35.49200471008301,354.05688484375C36.477039710083005,356.31207484375,39.608810710083006,356.48730484375,40.83927871008301,354.35607484375L59.44281971008301,322.13378484375C60.501802710083005,320.29959484375,59.37806871008301,317.97521484375,57.28279271008301,317.66595484375L46.499515710083,316.07437484375Z" fill="var(--2-147)" />
    <path d="M209.69853932250976,250.93981209765624L209.91140932250977,241.57080109765624C209.96746932250977,239.10348509765626,212.81271932250976,237.75549309765626,214.75753932250976,239.27484109765624L243.04299932250976,261.37234509765625C244.87260932250976,262.80169709765624,244.45484932250977,265.67834509765623,242.29424932250976,266.52822909765626L213.24711932250977,277.95401009765624C211.25173932250976,278.7388920976563,209.10102932250976,277.23773209765625,209.14973932250976,275.09408609765626L209.35484932250978,266.06684109765627L209.12828932250977,266.03158609765626L28.064300522509765,237.85673509765624L28.064529422509764,237.85525509765625C23.972457922509765,237.21849109765625,21.171386722509766,233.38504009765626,21.808135986509765,229.29296879765624C22.444885252509767,225.20091249765625,26.278350822509765,222.39982604765626,30.370422322509768,223.03659057665624L30.370651222509764,223.03509521465625L209.69853932250976,250.93981209765624Z" fill="var(--2-456)" />
    <path d="M54.80002012121582,251.47436555371092C54.74395912121582,253.94168055371094,51.89871612121582,255.28967255371094,49.953892121215816,253.77032455371094L21.66842652121582,231.67282055371095C19.83881950121582,230.24346955371095,20.25657463121582,227.36682155371093,22.41717532121582,226.51693755371093L51.46431012121582,215.09117126371095C53.45968812121582,214.30627441371092,55.61039912121582,215.80744934371094,55.56169312121582,217.95109555371093L55.35658812121582,226.97830955371094L55.58314712121582,227.01356555371095L236.64712612121582,255.18843055371093L236.64689612121583,255.18991055371094C240.7389661212158,255.82667555371094,243.54003612121582,259.66012555371094,242.90329612121582,263.7521975537109C242.2665461212158,267.84426855371095,238.43307612121583,270.6453245537109,234.34100612121583,270.00857555371095L234.3407761212158,270.01007055371093L55.01289212121582,242.10535455371092L54.80002012121582,251.47436555371092Z" fill="var(--2-654)" />
    <path d="M209.69853932250976,145.93981146826172L209.91140932250977,136.57080046826172C209.96746932250977,134.1034854682617,212.81271932250976,132.7554934682617,214.75753932250976,134.2748414682617L243.04299932250976,156.37234546826173C244.87260932250976,157.80169646826172,244.45484932250977,160.6783444682617,242.29424932250976,161.52822846826172L213.24711932250977,172.95399446826173C211.25173932250976,173.73889146826173,209.10102932250976,172.2377164682617,209.14973932250976,170.09407046826172L209.35484932250978,161.06685646826173L209.12828932250977,161.03160046826173L28.064300522509765,132.85673546826172L28.064529422509764,132.85525546826173C23.972457922509765,132.2184904682617,21.171386722509766,128.3850404682617,21.808135986509765,124.29296876826172C22.444885252509767,120.20091246826172,26.278350822509765,117.39982604826172,30.370422322509768,118.03658294726172L30.370651222509764,118.03510284426171L209.69853932250976,145.93981146826172Z" fill="var(--2-123)" />
    <path d="M54.80002012121582,146.4743649243164C54.74395912121582,148.94168092431642,51.89871612121582,150.2896729243164,49.953892121215816,148.7703249243164L21.66842652121582,126.6728209243164C19.83881950121582,125.2434689243164,20.25657463121582,122.36682092431641,22.41717532121582,121.5169449243164L51.46431012121582,110.0911712643164C53.45968812121582,109.3062744143164,55.61039912121582,110.80744934431641,55.56169312121582,112.95109562431641L55.35658812121582,121.9783099243164L55.58314712121582,122.01356492431641L236.64712612121582,150.1884309243164L236.64689612121583,150.1899109243164C240.7389661212158,150.82667492431642,243.54003612121582,154.6601259243164,242.90329612121582,158.75219692431642C242.2665461212158,162.8442539243164,238.43307612121583,165.6453399243164,234.34100612121583,165.0085759243164L234.3407761212158,165.0100709243164L55.01289212121582,137.1053539243164L54.80002012121582,146.4743649243164Z" fill="var(--2-321)" />
    <path d="M209.69853932250976,357.9398120976563L209.91140932250977,348.5708010976563C209.96746932250977,346.10348509765623,212.81271932250976,344.75549309765626,214.75753932250976,346.27484109765624L243.04299932250976,368.37234509765625C244.87260932250976,369.80169709765624,244.45484932250977,372.67834509765623,242.29424932250976,373.52822909765626L213.24711932250977,384.95401009765624C211.25173932250976,385.7388920976563,209.10102932250976,384.23773209765625,209.14973932250976,382.09408609765626L209.35484932250978,373.06684109765627L209.12828932250977,373.03158609765626L28.064300522509765,344.85672009765625L28.064529422509764,344.85525509765625C23.972457922509765,344.21850609765625,21.171386722509766,340.38504009765626,21.808135986509765,336.2929687976563C22.444885252509767,332.2008971976563,26.278350822509765,329.39984130765623,30.370422322509768,330.03659057665624L30.370651222509764,330.0350952146562L209.69853932250976,357.9398120976563Z" fill="var(--2-789)" />
    <path d="M54.80002012121582,358.4743652949219C54.74395912121582,360.94168129492186,51.89871612121582,362.2896732949219,49.953892121215816,360.77032429492186L21.66842652121582,338.67282129492185C19.83881950121582,337.24346929492185,20.25657463121582,334.36682129492186,22.41717532121582,333.5169372949219L51.46431012121582,322.09115600492186C53.45968812121582,321.30627441492186,55.61039912121582,322.80743408492185,55.56169312121582,324.9510802949219L55.35658812121582,333.9783252949219L55.58314712121582,334.0135802949219L236.64712612121582,362.18844629492185L236.64689612121583,362.1899112949219C240.7389661212158,362.82666029492185,243.54003612121582,366.6601252949219,242.90329612121582,370.75219729492187C242.2665461212158,374.8442692949219,238.43307612121583,377.64532429492186,234.34100612121583,377.00857529492185L234.3407761212158,377.0100712949219L55.01289212121582,349.1053542949219L54.80002012121582,358.4743652949219Z" fill="var(--2-987)" />
  </g>
</svg>
