<svg xmlns="http://www.w3.org/2000/svg" xmlns:xlink="http://www.w3.org/1999/xlink"
  version="1.1" viewBox="0 0 470 422">
  <g>
    <g>
      <g transform="matrix(-1,0,0,1,939.9999389648438,0)">
        <path
          d="M485.65109148242186,268.677112125C477.9089607824219,266.206005325,470.0011586741219,271.983720825,470.00232277742185,280.110650625L470.01261842142185,351.98741962500003C470.01336629042186,357.208495625,473.3899311824219,361.82993362499997,478.36379428242185,363.417503625L511.6925814824219,374.055440625C519.4347194824219,376.526600625,527.3425594824218,370.74888062499997,527.3414034824219,362.621932625L527.3311844824219,290.745014625C527.3304404824219,285.523906625,523.9538494824219,280.902454625,518.9799534824219,279.314903625L485.65109148242186,268.677112125Z"
          fill="var(--3-9, #292929)" />
      </g>
      <g transform="matrix(-1,0,0,1,806.1112670898438,0)">
        <path
          d="M418.70675554492186,290.65123321875C410.9646248449219,288.18012641875,403.0568227366219,293.95784191875,403.05798683992185,302.08477171875L403.06828248392185,373.96154071875003C403.06903035292186,379.18261671875,406.4455952449219,383.80405471874997,411.41945834492185,385.39162471875L444.7482455449219,396.02956171875C452.4903835449219,398.50072171875,460.39822354492185,392.72300171874997,460.39706754492187,384.59605371875L460.38684854492186,312.71913571875C460.38610454492186,307.49802771875,457.0095135449219,302.87657571875,452.0356175449219,301.28902471875L418.70675554492186,290.65123321875Z"
          fill="var(--3-8, #292929)" />
      </g>
      <g transform="matrix(-1,0,0,1,672.2230834960938,0)">
        <path
          d="M351.76266374804686,311.626330875C344.0205330480469,309.155224075,336.1127309397469,314.932939575,336.11389504304685,323.059869375L336.12419068704685,394.93663837500003C336.12493855604686,400.157714375,339.5015034480469,404.77915237499997,344.47536654804685,406.366722375L377.8041537480469,417.004659375C385.5462917480469,419.475819375,393.45413174804685,413.69809937499997,393.45297574804687,405.571151375L393.44275674804686,333.694233375C393.44201274804686,328.473125375,390.0654217480469,323.851673375,385.0915257480469,322.264122375L351.76266374804686,311.626330875Z"
          fill="var(--3-7, #292929)" />
      </g>
      <g transform="matrix(-1,0,0,1,939.9999389648438,0)">
        <path
          d="M485.65109148242186,161.8050418125C477.9089607824219,159.3339350125,470.0011586741219,165.1116505125,470.00232277742185,173.2385803125L470.01261842142185,245.1153493125C470.01336629042186,250.3364253125,473.3899311824219,254.9578633125,478.36379428242185,256.5454333125L511.6925814824219,267.1833703125C519.4347194824219,269.6545303125,527.3425594824218,263.87681031249997,527.3414034824219,255.7498623125L527.3311844824219,183.8729443125C527.3304404824219,178.6518363125,523.9538494824219,174.0303843125,518.9799534824219,172.4428333125L485.65109148242186,161.8050418125Z"
          fill="var(--3-6, #292929)" />
      </g>
      <g transform="matrix(-1,0,0,1,806.111328125,0)">
        <path
          d="M418.7067860625,183.778674625C410.9646553625,181.307567825,403.0568532542,187.085283325,403.0580173575,195.212213125L403.0683130015,267.08898212500003C403.0690608705,272.310058125,406.4456257625,276.93149612499997,411.4194888625,278.519066125L444.7482760625,289.157003125C452.4904140625,291.628163125,460.3982540625,285.85044312499997,460.3970980625,277.723495125L460.3868790625,205.846577125C460.3861350625,200.625469125,457.0095440625,196.004017125,452.0356480625,194.416466125L418.7067860625,183.778674625Z"
          fill="var(--3-5, #292929)" />
      </g>
      <g transform="matrix(-1,0,0,1,672.2230834960938,0)">
        <path
          d="M351.76266374804686,204.75377228125C344.0205330480469,202.28266548125,336.1127309397469,208.06038098125,336.11389504304685,216.18731078125L336.12419068704685,288.06407978125003C336.12493855604686,293.28515578125,339.5015034480469,297.90659378124997,344.47536654804685,299.49416378125L377.8041537480469,310.13210078125C385.5462917480469,312.60326078125,393.45413174804685,306.82554078124997,393.45297574804687,298.69859278125L393.44275674804686,226.82167478125C393.44201274804686,221.60056678125,390.0654217480469,216.97911478125,385.0915257480469,215.39156378125L351.76266374804686,204.75377228125Z"
          fill="var(--3-4, #292929)" />
      </g>
      <g transform="matrix(-1,0,0,1,939.9999389648438,0)">
        <path
          d="M485.65109148242186,53.93345978125C477.9089607824219,51.46235298125,470.0011586741219,57.24006848125,470.00232277742185,65.36699828125L470.01261842142185,137.24376728125C470.01336629042186,142.46484328125,473.3899311824219,147.08628128125,478.36379428242185,148.67385128125L511.6925814824219,159.31178828125002C519.4347194824219,161.78294828125001,527.3425594824218,156.00522828125,527.3414034824219,147.87828028125L527.3311844824219,76.00136228125C527.3304404824219,70.78025428125,523.9538494824219,66.15880228125,518.9799534824219,64.57125128125L485.65109148242186,53.93345978125Z"
          fill="var(--3-3, #292929)" />
      </g>
      <g transform="matrix(-1,0,0,1,806.1112670898438,0)">
        <path
          d="M418.70675554492186,75.90709259375C410.9646248449219,73.43598579375,403.0568227366219,79.21370129375,403.05798683992185,87.34063109375L403.06828248392185,159.21740009375C403.06903035292186,164.43847609375,406.4455952449219,169.05991409375,411.41945834492185,170.64748409375L444.7482455449219,181.28542109375002C452.4903835449219,183.75658109375001,460.39822354492185,177.97886109375,460.39706754492187,169.85191309375L460.38684854492186,97.97499509375C460.38610454492186,92.75388709375,457.0095135449219,88.13243509375,452.0356175449219,86.54488409375L418.70675554492186,75.90709259375Z"
          fill="var(--3-2, #292929)" />
      </g>
      <g transform="matrix(-1,0,0,1,672.2230834960938,0)">
        <path
          d="M351.76266374804686,96.88219025C344.0205330480469,94.41108345,336.1127309397469,100.18879895,336.11389504304685,108.31572875L336.12419068704685,180.19249775C336.12493855604686,185.41357375,339.5015034480469,190.03501175,344.47536654804685,191.62258175L377.8041537480469,202.26051875000002C385.5462917480469,204.73167875000001,393.45413174804685,198.95395875,393.45297574804687,190.82701075L393.44275674804686,118.95009275C393.44201274804686,113.72898475,390.0654217480469,109.10753275,385.0915257480469,107.51998175L351.76266374804686,96.88219025Z"
          fill="var(--3-1, #292929)" />
      </g>
    </g>
    <g>
      <g>
        <path
          d="M185.84521484375,398.48377971875C185.84521484375,404.38693271875,190.13858794375,409.41332971875,195.96915284375,410.33621971875L254.89707984375002,419.66362171875C262.18201484375,420.81672171875,268.77313984375,415.18681171875,268.77313984375,407.81117971875L268.77313984375,335.00067471875C268.77313984375,329.09751871875,264.47975884375,324.07111871875,258.64919284375003,323.14823171875L199.72127184375,313.82087231875C192.43633894375,312.66778251875,185.84521484375,318.29768991875,185.84521484375,325.67331671875L185.84521484375,398.48377971875Z"
          fill="var(--2-9, #292929)" />
      </g>
      <g>
        <path
          d="M92.92236328125,383.9911039375C92.92236328125,389.8942569375,97.21573638125,394.9206539375,103.04630128125,395.8435439375L161.97422828125002,405.1709459375C169.25916328124998,406.3240459375,175.85028828125002,400.6941359375,175.85028828125002,393.3185039375L175.85028828125002,320.5079989375C175.85028828125002,314.6048429375,171.55690728125,309.5784429375,165.72634128125,308.6555559375L106.79842028125,299.3281965375C99.51348738125,298.1751067375,92.92236328125,303.8050141375,92.92236328125,311.1806409375L92.92236328125,383.9911039375Z"
          fill="var(--2-8, #292929)" />
      </g>
      <g>
        <path
          d="M0,369.0086820625C0,374.9118350625,4.2933731,379.9382320625,10.123938,380.8611220625L69.051865,390.1885240625C76.3368,391.3416240625,82.927925,385.7117140625,82.927925,378.3360820625L82.927925,305.5255770625C82.927925,299.6224210625,78.634544,294.5960210625,72.803978,293.6731340625L13.876057,284.3457746625C6.5911241,283.1926848625,0,288.8225922625,0,296.1982190625L0,369.0086820625Z"
          fill="var(--2-7, #292929)" />
      </g>
      <g>
        <path
          d="M185.84521484375,291.611221125C185.84521484375,297.514374125,190.13858794375,302.540771125,195.96915284375,303.463661125L254.89707984375002,312.791063125C262.18201484375,313.944163125,268.77313984375,308.314253125,268.77313984375,300.938621125L268.77313984375,228.128116125C268.77313984375,222.224960125,264.47975884375,217.198560125,258.64919284375003,216.275673125L199.72127184375,206.948313725C192.43633894375,205.795223925,185.84521484375,211.425131325,185.84521484375,218.800758125L185.84521484375,291.611221125Z"
          fill="var(--2-6, #292929)" />
      </g>
      <g>
        <path
          d="M92.92236328125,277.11854534375C92.92236328125,283.02169834375,97.21573638125,288.04809534375,103.04630128125,288.97098534375L161.97422828125002,298.29838734375C169.25916328124998,299.45148734375,175.85028828125002,293.82157734375,175.85028828125002,286.44594534375L175.85028828125002,213.63544034375C175.85028828125002,207.73228434375,171.55690728125,202.70588434375,165.72634128125,201.78299734375L106.79842028125,192.45563794375C99.51348738125,191.30254814375,92.92236328125,196.93245554375,92.92236328125,204.30808234375L92.92236328125,277.11854534375Z"
          fill="var(--2-5, #292929)" />
      </g>
      <g>
        <path
          d="M0,262.13612346875C0,268.03927646875,4.2933731,273.06567346875,10.123938,273.98856346875L69.051865,283.31596546875C76.3368,284.46906546875,82.927925,278.83915546875,82.927925,271.46352346875L82.927925,198.65301846875C82.927925,192.74986246875,78.634544,187.72346246875,72.803978,186.80057546875L13.876057,177.47321606875C6.5911241,176.32012626875,0,181.95003366875,0,189.32566046875L0,262.13612346875Z"
          fill="var(--2-4, #292929)" />
      </g>
      <g>
        <path
          d="M185.84521484375,184.249893C185.84521484375,190.15304600000002,190.13858794375,195.179443,195.96915284375,196.102333L254.89707984375002,205.429735C262.18201484375,206.582835,268.77313984375,200.952925,268.77313984375,193.577293L268.77313984375,120.76678799999999C268.77313984375,114.863632,264.47975884375,109.837232,258.64919284375003,108.914345L199.72127184375,99.5869856C192.43633894375,98.4338958,185.84521484375,104.0638032,185.84521484375,111.43943L185.84521484375,184.249893Z"
          fill="var(--2-3, #292929)" />
      </g>
      <g>
        <path
          d="M92.92236328125,169.7567289375C92.92236328125,175.65988193750002,97.21573638125,180.6862789375,103.04630128125,181.6091689375L161.97422828125002,190.9365709375C169.25916328124998,192.0896709375,175.85028828125002,186.4597609375,175.85028828125002,179.0841289375L175.85028828125002,106.27362393749999C175.85028828125002,100.3704679375,171.55690728125,95.3440679375,165.72634128125,94.4211809375L106.79842028125,85.0938215375C99.51348738125,83.9407317375,92.92236328125,89.5706391375,92.92236328125,96.9462659375L92.92236328125,169.7567289375Z"
          fill="var(--2-2, #292929)" />
      </g>
      <g>
        <path
          d="M0,154.77479534375C0,160.67794834375002,4.2933731,165.70434534375,10.123938,166.62723534375L69.051865,175.95463734375C76.3368,177.10773734375,82.927925,171.47782734375,82.927925,164.10219534375L82.927925,91.29169034374999C82.927925,85.38853434375,78.634544,80.36213434375,72.803978,79.43924734375L13.876057,70.11188794375C6.5911241,68.95879814375,0,74.58870554375,0,81.96433234375L0,154.77479534375Z"
          fill="var(--2-1, #292929)" />
      </g>
    </g>
    <g>
      <g>
        <path
          d="M202.882242453125,86.4140555C199.870300253125,87.3757865,200.202875153125,91.74070950000001,203.325755453125,92.23501350000001L273.065719453125,103.2737925C273.528144453125,103.3469865,274.001274453125,103.3109355,274.44727345312504,103.1685255L319.180034453125,88.8848705C322.191974453125,87.9231265,321.859394453125,83.5582085,318.736504453125,83.06391550000001L248.996456453125,72.02537505C248.534038453125,71.952183262,248.060909453125,71.988232851,247.614921453125,72.13063958L202.882242453125,86.4140555Z"
          fill="var(--1-9, #292929)" />
      </g>
      <g>
        <path
          d="M109.95963503125,72.4306570625C106.94769283125,73.3923880625,107.28026773125,77.75731106250001,110.40314803125,78.25161506250001L180.14311203124998,89.2903940625C180.60553703124998,89.3635880625,181.07866703125,89.3275370625,181.52466603125,89.1851270625L226.25742703125,74.9014720625C229.26936703125,73.9397280625,228.93678703125,69.5748100625,225.81389703125,69.08051706250001L156.07384903125,58.0419766125C155.61143103125,57.9687848245,155.13830203125,58.0048344135,154.69231403125,58.1472411425L109.95963503125,72.4306570625Z"
          fill="var(--1-8, #292929)" />
      </g>
      <g>
        <path
          d="M17.036783468750002,57.44872346875C14.02484126875,58.410454468750004,14.35741616875,62.77537746875,17.480296468749998,63.26968146875L87.22026046875,74.30846046875C87.68268546875,74.38165446875,88.15581546875,74.34560346875,88.60181446875,74.20319346875L133.33457546875,59.919538468750005C136.34651546875,58.957794468749995,136.01393546875,54.59287646875,132.89104546875,54.09858346875L63.15099746875,43.06004301875C62.68857946875,42.98685123075,62.21545046875,43.02290081975,61.76946246875,43.16530754875L17.036783468750002,57.44872346875Z"
          fill="var(--1-7, #292929)" />
      </g>
      <g>
        <path
          d="M269.82633425,65.439446125C266.81439205,66.401177125,267.14696695,70.76610012500001,270.26984725,71.26040412500001L340.00981125,82.299183125C340.47223625,82.372377125,340.94536625,82.336326125,341.39136525000004,82.193916125L386.12412625,67.910261125C389.13606625,66.948517125,388.80348625,62.583599125,385.68059625,62.089306125L315.94054825,51.050765675C315.47813025,50.977573887,315.00500125,51.013623476,314.55901325,51.156030205L269.82633425,65.439446125Z"
          fill="var(--1-6, #292929)" />
      </g>
      <g>
        <path
          d="M176.903726828125,51.4560476875C173.891784628125,52.417778687500004,174.224359528125,56.7827016875,177.347239828125,57.2770056875L247.08720382812498,68.3157846875C247.54962882812498,68.3889786875,248.022758828125,68.3529276875,248.468757828125,68.2105176875L293.201518828125,53.926862687500005C296.213458828125,52.965118687499995,295.880878828125,48.6002006875,292.757988828125,48.1059076875L223.017940828125,37.0673672375C222.555522828125,36.9941754495,222.082393828125,37.0302250385,221.636405828125,37.1726317675L176.903726828125,51.4560476875Z"
          fill="var(--1-5, #292929)" />
      </g>
      <g>
        <path
          d="M83.98111940625,36.4736258125C80.96917720625,37.435356812500004,81.30175210625,41.8002798125,84.42463240625,42.2945838125L154.16459640624998,53.3333628125C154.62702140624998,53.4065568125,155.10015140625,53.3705058125,155.54615040625,53.2280958125L200.27891140625,38.944440812500005C203.29085140625,37.982696812499995,202.95827140625,33.6177788125,199.83538140625,33.1234858125L130.09533340625,22.0849453625C129.63291540625,22.0117535745,129.15978640625,22.0478031635,128.71379840625,22.1902098925L83.98111940625,36.4736258125Z"
          fill="var(--1-4, #292929)" />
      </g>
      <g>
        <path
          d="M336.7706701875,43.46532503125C333.7587279875,44.427056031250004,334.0913028875,48.79197903125,337.2141831875,49.28628303125L406.9541471875,60.32506203125C407.4165721875,60.39825603125,407.8897021875,60.36220503125,408.33570118750004,60.21979503125L453.0684621875,45.936140031250005C456.0804021875,44.974396031249995,455.7478221875,40.60947803125,452.6249321875,40.11518503125L382.8848841875,29.07664458125C382.4224661875,29.00345279325,381.9493371875,29.03950238225,381.5033491875,29.18190911125L336.7706701875,43.46532503125Z"
          fill="var(--1-3, #292929)" />
      </g>
      <g>
        <path
          d="M243.848062765625,29.48192659375C240.836120565625,30.44365759375,241.168695465625,34.80858059375,244.291575765625,35.30288459375L314.031539765625,46.34166359375C314.493964765625,46.41485759375,314.967094765625,46.37880659375,315.41309376562504,46.23639659375L360.145854765625,31.95274159375C363.157794765625,30.99099759375,362.825214765625,26.62607959375,359.702324765625,26.13178659375L289.962276765625,15.09324614375C289.499858765625,15.02005435575,289.026729765625,15.05610394475,288.580741765625,15.19851067375L243.848062765625,29.48192659375Z"
          fill="var(--1-2, #292929)" />
      </g>
      <g>
        <path
          d="M150.92545534375,14.499993C147.91351314375,15.461724,148.24608804375,19.826647,151.36896834375,20.320951L221.10893234374998,31.35973C221.57135734374998,31.432924,222.04448734375,31.396873,222.49048634375,31.254463L267.22324734375,16.970808C270.23518734375,16.009064,269.90260734375,11.644146,266.77971734375,11.149853L197.03966934375,0.11131255C196.57725134375,0.038120762,196.10412234375,0.074170351,195.65813434375,0.21657708L150.92545534375,14.499993Z"
          fill="var(--1-1, #292929)" />
      </g>
    </g>
  </g>
</svg>
