<svg xmlns="http://www.w3.org/2000/svg"
  xmlns:xlink="http://www.w3.org/1999/xlink" fill="none" version="1.1" viewBox="0 0 360 360">
  <path d="M325.0002445913086,360L255.00024369130858,360L255.00024369130858,360C252.2393719913086,359.9990005,250.0012435913086,357.7608719,250.0012435913086,355C250.0012435913086,352.2391284,252.2393719913086,350.00099992752,255.00024369130858,350.00099992752L255.00024369130858,350.00099992752L325.0002445913086,350L325.0002445913086,350C327.76111559130857,350.00099992752,329.9992445913086,352.2391284,329.9992445913086,355C329.9992445913086,357.7608719,327.76111559130857,359.9990005,325.0002445913086,360L325.0002445913086,360Z" fill="var(--9-2)" />
  <path d="M360.000244,255.0000171506836L360.000244,255.0000171506836C359.9992447,252.2391278506836,357.761116,250.0009994506836,355.0002441,250.0009994506836C352.2393792,250.0009994506836,350.0012536049,252.2391171506836,350.0012440681,254.99998185068358L350.0012440681,254.99998185068358L350,324.9999844506836L350,324.9999844506836C350.00099992752,327.76087145068357,352.2391284,329.9990004506836,355,329.9990004506836C357.7608719,329.9990004506836,359.9990005,327.7608794506836,359.9990005,325.0000154506836L359.9990005,325.0000154506836L360.000244,255.0000171506836Z" fill="var(--9-1)" />
  <path d="M240.000244140625,325L240.000244140625,255C240.000244140625,246.7157288,246.715972940625,240,255.000244140625,240L325.000244140625,240C333.284515140625,240,340.000244140625,246.7157288,340.000244140625,255L340.000244140625,325C340.000244140625,333.284271,333.284515140625,340,325.000244140625,340L255.000244140625,340C246.715972940625,340,240.000244140625,333.284271,240.000244140625,325Z" fill="var(--9-0, #292929)" />
  <path d="M215.00024459130861,360L145.00024369130858,360L145.00024369130858,360C142.2393719913086,359.9990005,140.0012435913086,357.7608719,140.0012435913086,355C140.0012435913086,352.2391284,142.2393719913086,350.00099992752,145.00024369130858,350.00099992752L145.00024369130858,350.00099992752L215.00024459130861,350L215.00024459130861,350C217.7611155913086,350.00099992752,219.99924459130858,352.2391284,219.99924459130858,355C219.99924459130858,357.7608719,217.7611155913086,359.9990005,215.00024459130861,360L215.00024459130861,360Z" fill="var(--8-2)" />
  <path d="M130.000244140625,325L130.000244140625,255C130.000244140625,246.7157288,136.715972940625,240,145.000244140625,240L215.000244140625,240C223.284515140625,240,230.000244140625,246.7157288,230.000244140625,255L230.000244140625,325C230.000244140625,333.284271,223.284515140625,340,215.000244140625,340L145.000244140625,340C136.715972940625,340,130.000244140625,333.284271,130.000244140625,325Z" fill="var(--8-0, #292929)" />
  <path d="M105.0002445913086,360L35.0002436913086,360L35.0002436913086,360C32.239371991308595,359.9990005,30.001243591308594,357.7608719,30.001243591308594,355C30.001243591308594,352.2391284,32.239371991308595,350.00099992752,35.0002436913086,350.00099992752L35.0002436913086,350.00099992752L105.0002445913086,350L105.0002445913086,350C107.7611155913086,350.00099992752,109.9992445913086,352.2391284,109.9992445913086,355C109.9992445913086,357.7608719,107.7611155913086,359.9990005,105.0002445913086,360L105.0002445913086,360Z" fill="var(--7-2)" />
  <path d="M10.000244,255.0000171506836L10.000244,255.0000171506836C9.9992447,252.2391278506836,7.761116,250.0009994506836,5.0002441,250.0009994506836C2.2393792,250.0009994506836,0.0012536049,252.2391171506836,0.0012440681,254.99998185068358L0.0012440681,254.99998185068358L0,324.9999844506836L0,324.9999844506836C0.00099992752,327.76087145068357,2.2391284,329.9990004506836,5,329.9990004506836C7.7608719,329.9990004506836,9.9990005,327.7608794506836,9.9990005,325.0000154506836L9.9990005,325.0000154506836L10.000244,255.0000171506836Z" fill="var(--7-1)" />
  <path d="M20.000244140625,325L20.000244140625,255C20.000244140625,246.7157288,26.715972940625,240,35.000244140625,240L105.000244140625,240C113.284515140625,240,120.000244140625,246.7157288,120.000244140625,255L120.000244140625,325C120.000244140625,333.284271,113.284515140625,340,105.000244140625,340L35.000244140625,340C26.715972940625,340,20.000244140625,333.284271,20.000244140625,325Z" fill="var(--7-0, #292929)" />
  <path d="M360.000244,145.0000171506836L360.000244,145.0000171506836C359.9992447,142.2391278506836,357.761116,140.0009994506836,355.0002441,140.0009994506836C352.2393792,140.0009994506836,350.0012536049,142.2391171506836,350.0012440681,144.99998185068358L350.0012440681,144.99998185068358L350,214.9999844506836L350,214.9999844506836C350.00099992752,217.7608714506836,352.2391284,219.99900045068358,355,219.99900045068358C357.7608719,219.99900045068358,359.9990005,217.7608794506836,359.9990005,215.00001545068358L359.9990005,215.00001545068358L360.000244,145.0000171506836Z" fill="var(--6-1)" />
  <path d="M240.000244140625,215L240.000244140625,145C240.000244140625,136.7157288,246.715972940625,130,255.000244140625,130L325.000244140625,130C333.284515140625,130,340.000244140625,136.7157288,340.000244140625,145L340.000244140625,215C340.000244140625,223.284271,333.284515140625,230,325.000244140625,230L255.000244140625,230C246.715972940625,230,240.000244140625,223.284271,240.000244140625,215Z" fill="var(--6-0, #292929)" />
  <path d="M130.000244140625,215L130.000244140625,145C130.000244140625,136.7157288,136.715972940625,130,145.000244140625,130L215.000244140625,130C223.284515140625,130,230.000244140625,136.7157288,230.000244140625,145L230.000244140625,215C230.000244140625,223.284271,223.284515140625,230,215.000244140625,230L145.000244140625,230C136.715972940625,230,130.000244140625,223.284271,130.000244140625,215Z" fill="var(--5-0, #292929)" />
  <path d="M10.000244,145.0000171506836C9.9992447,142.2391278506836,7.761116,140.0009994506836,5.0002441,140.0009994506836C2.2393792,140.0009994506836,0.0012536049,142.2391171506836,0.0012440681,144.99998185068358L0,214.9999844506836C0.00099992752,217.7608714506836,2.2391284,219.99900045068358,5,219.99900045068358C7.7608719,219.99900045068358,9.9990005,217.7608794506836,9.9990005,215.00001545068358L10.000244,145.0000171506836Z" fill="var(--4-1)" />
  <path d="M20.000244140625,215L20.000244140625,145C20.000244140625,136.7157288,26.715972940625,130,35.000244140625,130L105.000244140625,130C113.284515140625,130,120.000244140625,136.7157288,120.000244140625,145L120.000244140625,215C120.000244140625,223.284271,113.284515140625,230,105.000244140625,230L35.000244140625,230C26.715972940625,230,20.000244140625,223.284271,20.000244140625,215Z" fill="var(--4-0, #292929)" />
  <path d="M325.0002445913086,10L255.00024369130858,10C252.2393719913086,9.9990005,250.0012435913086,7.7608719,250.0012435913086,5C250.0012435913086,2.2391284,252.2393719913086,0.00099992752,255.00024369130858,0.00099992752L325.0002445913086,0C327.76111559130857,0.00099992752,329.9992445913086,2.2391284,329.9992445913086,5C329.9992445913086,7.7608719,327.76111559130857,9.9990005,325.0002445913086,10Z" fill="var(--3-2)" />
  <path d="M360.000244,35.00001715068359C359.9992447,32.239127850683595,357.761116,30.000999450683594,355.0002441,30.000999450683594C352.2393792,30.000999450683594,350.0012536049,32.2391171506836,350.0012440681,34.9999818506836L350,104.9999844506836C350.00099992752,107.7608714506836,352.2391284,109.9990004506836,355,109.9990004506836C357.7608719,109.9990004506836,359.9990005,107.76087945068359,359.9990005,105.00001545068359L360.000244,35.00001715068359Z" fill="var(--3-1)" />
  <path d="M240.000244140625,105L240.000244140625,35C240.000244140625,26.7157288,246.715972940625,20,255.000244140625,20L325.000244140625,20C333.284515140625,20,340.000244140625,26.7157288,340.000244140625,35L340.000244140625,105C340.000244140625,113.284271,333.284515140625,120,325.000244140625,120L255.000244140625,120C246.715972940625,120,240.000244140625,113.284271,240.000244140625,105Z" fill="var(--3-0, #292929)" />
  <path d="M215.00024459130861,10L145.00024369130858,10C142.2393719913086,9.9990005,140.0012435913086,7.7608719,140.0012435913086,5C140.0012435913086,2.2391284,142.2393719913086,0.00099992752,145.00024369130858,0.00099992752L215.00024459130861,0C217.7611155913086,0.00099992752,219.99924459130858,2.2391284,219.99924459130858,5C219.99924459130858,7.7608719,217.7611155913086,9.9990005,215.00024459130861,10Z" fill="var(--2-2)" />
  <path d="M130.000244140625,105L130.000244140625,35C130.000244140625,26.7157288,136.715972940625,20,145.000244140625,20L215.000244140625,20C223.284515140625,20,230.000244140625,26.7157288,230.000244140625,35L230.000244140625,105C230.000244140625,113.284271,223.284515140625,120,215.000244140625,120L145.000244140625,120C136.715972940625,120,130.000244140625,113.284271,130.000244140625,105Z" fill="var(--2-0, #292929)" />
  <path d="M105.0002445913086,10L35.0002436913086,10C32.239371991308595,9.9990005,30.001243591308594,7.7608719,30.001243591308594,5C30.001243591308594,2.2391284,32.239371991308595,0.00099992752,35.0002436913086,0.00099992752L105.0002445913086,0C107.7611155913086,0.00099992752,109.9992445913086,2.2391284,109.9992445913086,5C109.9992445913086,7.7608719,107.7611155913086,9.9990005,105.0002445913086,10Z" fill="var(--1-2)" />
  <path d="M10.000244,35.00001715068359C9.9992447,32.239127850683595,7.761116,30.000999450683594,5.0002441,30.000999450683594C2.2393792,30.000999450683594,0.0012536049,32.2391171506836,0.0012440681,34.9999818506836L0,104.9999844506836C0.00099992752,107.7608714506836,2.2391284,109.9990004506836,5,109.9990004506836C7.7608719,109.9990004506836,9.9990005,107.76087945068359,9.9990005,105.00001545068359L10.000244,35.00001715068359Z" fill="var(--1-1)" />
  <path d="M20.000244140625,105L20.000244140625,35C20.000244140625,26.7157288,26.715972940625,20,35.000244140625,20L105.000244140625,20C113.284515140625,20,120.000244140625,26.7157288,120.000244140625,35L120.000244140625,105C120.000244140625,113.284271,113.284515140625,120,105.000244140625,120L35.000244140625,120C26.715972940625,120,20.000244140625,113.284271,20.000244140625,105Z" fill="var(--1-0, #292929)" />
</svg>
