<svg xmlns="http://www.w3.org/2000/svg"
  xmlns:xlink="http://www.w3.org/1999/xlink" fill="none" version="1.1" viewBox="0 0 150 133">
  <path d="M0,112.26140555810547C0,118.16455855810547,4.2933731,123.19095655810547,10.123938,124.11384555810547L69.051865,133.44124455810547C76.3368,134.59434455810546,82.927925,128.96443455810547,82.927925,121.58880655810547L82.927925,48.77830355810547C82.927925,42.87514655810547,78.634544,37.84874755810547,72.803978,36.92585945810547L13.876057,27.598500728105467C6.5911241,26.44541095810547,0,32.07531835810547,0,39.45094455810547L0,112.26140555810547Z" fill="#FF0000" />
  <path d="M17.0367832649292,14.425569C14.024841304929199,15.3873,14.357416154929199,19.752222,17.4802961649292,20.246527L87.2202633649292,31.285305C87.6826883649292,31.3585,88.1558183649292,31.322449,88.6018173649292,31.180038L133.33458436492919,16.896383C136.3465143649292,15.934639,136.01393436492918,11.569721,132.8910443649292,11.075428L63.1509963649292,0.036888063C62.6885783649292,-0.036303729,62.2154493649292,-0.0002541393,61.7694613649292,0.14215259L17.0367832649292,14.425569Z" fill="#FFFFFF" />
  <path d="M150.26379413476562,36.32725153125C150.2649571347656,28.20032123125,142.35715513476563,22.422605731250002,134.61502413476563,24.89371252125L101.28616333476563,35.531503531249996C96.31226353476562,37.11905453125,92.93567657476562,41.74050753125,92.93492889376563,46.96161453125L92.92471313476562,118.83853153125C92.92355346676563,126.96547453125,100.83139803476563,132.74319453125,108.57353213476563,130.27204453125L141.90232113476563,119.63410153125C146.87618213476563,118.04653153125,150.25275013476562,113.42509453125,150.25349813476564,108.20401753125L150.26379413476562,36.32725153125Z" fill="#2F88FF" />
</svg>
