<svg xmlns="http://www.w3.org/2000/svg"
  xmlns:xlink="http://www.w3.org/1999/xlink" fill="none" version="1.1" viewBox="0 0 150.26611328125 135.7120361328125">
  <g transform="matrix(-1,0,0,1,300.5322265625,0)">
    <path d="M165.91723528125,24.96812775C158.17510458125,22.49702095,150.26730247295,28.27473645,150.26846657625,36.401666250000005L150.27876222025,108.27843525C150.27951008925,113.49951125,153.65607498125,118.12094925,158.62993808125,119.70851925L191.95872528125,130.34645625000002C199.70086328125,132.81761625000001,207.60870328125,127.03989625,207.60754728125,118.91294825L207.59732828125,47.036030249999996C207.59658428125,41.814922249999995,204.21999328125,37.193470250000004,199.24609728125,35.60591925L165.91723528125,24.96812775Z" fill="#FF0000" />
  </g>
  <path d="M0,112.3358305C0,118.2389835,4.2933731,123.2653805,10.123938,124.1882705L69.051865,133.5156725C76.3368,134.6687725,82.927925,129.0388625,82.927925,121.6632305L82.927925,48.8527255C82.927925,42.949569499999996,78.634544,37.9231695,72.803978,37.0002825L13.876057,27.6729231C6.5911241,26.5198333,0,32.1497407,0,39.5253675L0,112.3358305Z" fill="#2F88FF" />
  <path d="M17.036783468750002,14.499993C14.02484126875,15.461724,14.35741616875,19.826647,17.480296468749998,20.320951L87.22026046875,31.35973C87.68268546875,31.432924,88.15581546875,31.396873,88.60181446875,31.254463L133.33457546875,16.970808C136.34651546875,16.009064,136.01393546875,11.644146,132.89104546875,11.149853L63.15099746875,0.11131255C62.68857946875,0.038120762,62.21545046875,0.074170351,61.76946246875,0.21657708L17.036783468750002,14.499993Z" fill="#FFFFFF" />
</svg>
