<svg xmlns="http://www.w3.org/2000/svg" xmlns:xlink="http://www.w3.org/1999/xlink" fill="none" version="1.1" width="804" height="804" viewBox="0 0 804 804"><g><g><ellipse cx="402" cy="402" rx="402" ry="402" fill="#0C0C0C" fill-opacity="1"/></g><g><g><g transform="matrix(-1,0,0,1,1274,0)"><path d="M652.651122,459.677112125C644.9089913,457.206005325,637.0011891917,462.983720825,637.002353295,471.110650625L637.012648939,542.987419625C637.013396808,548.208495625,640.3899617,552.829933625,645.3638248,554.417503625L678.692612,565.055440625C686.43475,567.526600625,694.34259,561.748880625,694.341434,553.621932625L694.331215,481.745014625C694.330471,476.523906625,690.95388,471.902454625,685.9799840000001,470.314903625L652.651122,459.677112125Z" fill="#FF0000" fill-opacity="1"/></g><g transform="matrix(-1,0,0,1,1140.111328125,0)"><path d="M585.7067860625,481.65123321875C577.9646553625,479.18012641875,570.0568532542,484.95784191875,570.0580173575,493.08477171875L570.0683130015,564.96154071875C570.0690608705,570.18261671875,573.4456257625,574.80405471875,578.4194888625,576.39162471875L611.7482760625,587.02956171875C619.4904140625,589.50072171875,627.3982540625,583.72300171875,627.3970980625,575.59605371875L627.3868790625,503.71913571875C627.3861350625,498.49802771875,624.0095440625,493.87657571875,619.0356480625001,492.28902471875L585.7067860625,481.65123321875Z" fill="#FF0000" fill-opacity="1"/></g><g transform="matrix(-1,0,0,1,1006.22314453125,0)"><path d="M518.762694265625,502.626330875C511.020563565625,500.155224075,503.112761457325,505.932939575,503.113925560625,514.059869375L503.124221204625,585.936638375C503.124969073625,591.157714375,506.501533965625,595.779152375,511.475397065625,597.366722375L544.804184265625,608.004659375C552.546322265625,610.475819375,560.454162265625,604.698099375,560.453006265625,596.571151375L560.442787265625,524.694233375C560.442043265625,519.473125375,557.065452265625,514.851673375,552.0915562656251,513.2641223749999L518.762694265625,502.626330875Z" fill="#292929" fill-opacity="1"/></g><g transform="matrix(-1,0,0,1,1274,0)"><path d="M652.651122,352.8050418125C644.9089913,350.3339350125,637.0011891917,356.1116505125,637.002353295,364.2385803125L637.012648939,436.11534931250003C637.013396808,441.3364253125,640.3899617,445.95786331249997,645.3638248,447.5454333125L678.692612,458.1833703125C686.43475,460.6545303125,694.34259,454.87681031249997,694.341434,446.7498623125L694.331215,374.8729443125C694.330471,369.6518363125,690.95388,365.0303843125,685.9799840000001,363.4428333125L652.651122,352.8050418125Z" fill="#FF0000" fill-opacity="1"/></g><g transform="matrix(-1,0,0,1,1140.111328125,0)"><path d="M585.7067860625,374.778674625C577.9646553625,372.307567825,570.0568532542,378.085283325,570.0580173575,386.212213125L570.0683130015,458.08898212500003C570.0690608705,463.310058125,573.4456257625,467.93149612499997,578.4194888625,469.519066125L611.7482760625,480.157003125C619.4904140625,482.628163125,627.3982540625,476.85044312499997,627.3970980625,468.723495125L627.3868790625,396.846577125C627.3861350625,391.625469125,624.0095440625,387.004017125,619.0356480625001,385.416466125L585.7067860625,374.778674625Z" fill="#FF0000" fill-opacity="1"/></g><g transform="matrix(-1,0,0,1,1006.22314453125,0)"><path d="M518.762694265625,395.75377228125C511.020563565625,393.28266548125,503.112761457325,399.06038098125,503.113925560625,407.18731078125L503.124221204625,479.06407978125003C503.124969073625,484.28515578125,506.501533965625,488.90659378124997,511.475397065625,490.49416378125L544.804184265625,501.13210078125C552.546322265625,503.60326078125,560.454162265625,497.82554078124997,560.453006265625,489.69859278125L560.442787265625,417.82167478125C560.442043265625,412.60056678125,557.065452265625,407.97911478125,552.0915562656251,406.39156378125L518.762694265625,395.75377228125Z" fill="#292929" fill-opacity="1"/></g><g transform="matrix(-1,0,0,1,1274,0)"><path d="M652.651122,244.93345978125C644.9089913,242.46235298125,637.0011891917,248.24006848125,637.002353295,256.36699828125L637.012648939,328.24376728125003C637.013396808,333.46484328125,640.3899617,338.08628128124997,645.3638248,339.67385128125L678.692612,350.31178828125C686.43475,352.78294828125,694.34259,347.00522828124997,694.341434,338.87828028125L694.331215,267.00136228125C694.330471,261.78025428125,690.95388,257.15880228125,685.9799840000001,255.57125128125L652.651122,244.93345978125Z" fill="#292929" fill-opacity="1"/></g><g transform="matrix(-1,0,0,1,1140.111328125,0)"><path d="M585.7067860625,266.90709259375C577.9646553625,264.43598579375,570.0568532542,270.21370129375,570.0580173575,278.34063109375L570.0683130015,350.21740009375003C570.0690608705,355.43847609375,573.4456257625,360.05991409374997,578.4194888625,361.64748409375L611.7482760625,372.28542109375C619.4904140625,374.75658109375,627.3982540625,368.97886109374997,627.3970980625,360.85191309375L627.3868790625,288.97499509375C627.3861350625,283.75388709375,624.0095440625,279.13243509375,619.0356480625001,277.54488409375L585.7067860625,266.90709259375Z" fill="#292929" fill-opacity="1"/></g><g transform="matrix(-1,0,0,1,1006.22314453125,0)"><path d="M518.762694265625,287.88219025C511.020563565625,285.41108345,503.112761457325,291.18879895,503.113925560625,299.31572875L503.124221204625,371.19249775000003C503.124969073625,376.41357375,506.501533965625,381.03501174999997,511.475397065625,382.62258175L544.804184265625,393.26051875C552.546322265625,395.73167875,560.454162265625,389.95395874999997,560.453006265625,381.82701075L560.442787265625,309.95009275C560.442043265625,304.72898475,557.065452265625,300.10753275,552.0915562656251,298.51998175L518.762694265625,287.88219025Z" fill="#FFFFFF" fill-opacity="0.8980392217636108"/></g></g><g><g><path d="M352.84521484375,589.48377971875C352.84521484375,595.38693271875,357.13858794375,600.41332971875,362.96915284375,601.33621971875L421.89707984375,610.6636217187499C429.18201484375,611.81672171875,435.77313984375,606.18681171875,435.77313984375,598.81117971875L435.77313984375,526.00067471875C435.77313984375,520.09751871875,431.47975884375,515.07111871875,425.64919284375003,514.14823171875L366.72127184375,504.82087231875C359.43633894375,503.66778251875,352.84521484375,509.29768991875,352.84521484375,516.67331671875L352.84521484375,589.48377971875Z" fill="#292929" fill-opacity="1"/></g><g><path d="M259.92236328125,574.9911039375C259.92236328125,580.8942569375,264.21573638125,585.9206539375,270.04630128125,586.8435439375L328.97422828125,596.1709459374999C336.25916328125,597.3240459375,342.85028828125,591.6941359375,342.85028828125,584.3185039375L342.85028828125,511.5079989375C342.85028828125,505.6048429375,338.55690728125,500.5784429375,332.72634128125003,499.6555559375L273.79842028125,490.3281965375C266.51348738125,489.1751067375,259.92236328125,494.8050141375,259.92236328125,502.1806409375L259.92236328125,574.9911039375Z" fill="#2F88FF" fill-opacity="1"/></g><g><path d="M167,560.0086820625C167,565.9118350625,171.2933731,570.9382320625,177.123938,571.8611220625L236.05186500000002,581.1885240624999C243.33679999999998,582.3416240625,249.92792500000002,576.7117140625,249.92792500000002,569.3360820625L249.92792500000002,496.5255770625C249.92792500000002,490.6224210625,245.634544,485.5960210625,239.803978,484.6731340625L180.876057,475.3457746625C173.5911241,474.1926848625,167,479.8225922625,167,487.1982190625L167,560.0086820625Z" fill="#2F88FF" fill-opacity="1"/></g><g><path d="M352.84521484375,482.611221125C352.84521484375,488.514374125,357.13858794375,493.540771125,362.96915284375,494.463661125L421.89707984375,503.791063125C429.18201484375,504.944163125,435.77313984375,499.314253125,435.77313984375,491.938621125L435.77313984375,419.128116125C435.77313984375,413.224960125,431.47975884375,408.198560125,425.64919284375003,407.275673125L366.72127184375,397.948313725C359.43633894375,396.795223925,352.84521484375,402.425131325,352.84521484375,409.800758125L352.84521484375,482.611221125Z" fill="#292929" fill-opacity="1"/></g><g><path d="M259.92236328125,468.11854534375C259.92236328125,474.02169834375,264.21573638125,479.04809534375,270.04630128125,479.97098534375L328.97422828125,489.29838734375C336.25916328125,490.45148734375,342.85028828125,484.82157734375,342.85028828125,477.44594534375L342.85028828125,404.63544034375C342.85028828125,398.73228434375,338.55690728125,393.70588434375,332.72634128125003,392.78299734375L273.79842028125,383.45563794375C266.51348738125,382.30254814375,259.92236328125,387.93245554375,259.92236328125,395.30808234375L259.92236328125,468.11854534375Z" fill="#2F88FF" fill-opacity="1"/></g><g><path d="M167,453.13612346875C167,459.03927646875,171.2933731,464.06567346875,177.123938,464.98856346875L236.05186500000002,474.31596546875C243.33679999999998,475.46906546875,249.92792500000002,469.83915546875,249.92792500000002,462.46352346875L249.92792500000002,389.65301846875C249.92792500000002,383.74986246875,245.634544,378.72346246875,239.803978,377.80057546875L180.876057,368.47321606875C173.5911241,367.32012626875,167,372.95003366875,167,380.32566046875L167,453.13612346875Z" fill="#2F88FF" fill-opacity="1"/></g><g><path d="M352.84521484375,375.249893C352.84521484375,381.153046,357.13858794375,386.179443,362.96915284375,387.102333L421.89707984375,396.429735C429.18201484375,397.582835,435.77313984375,391.952925,435.77313984375,384.577293L435.77313984375,311.766788C435.77313984375,305.863632,431.47975884375,300.837232,425.64919284375003,299.914345L366.72127184375,290.5869856C359.43633894375,289.4338958,352.84521484375,295.0638032,352.84521484375,302.43943L352.84521484375,375.249893Z" fill="#2F88FF" fill-opacity="1"/></g><g><path d="M259.92236328125,360.7567289375C259.92236328125,366.6598819375,264.21573638125,371.6862789375,270.04630128125,372.6091689375L328.97422828125,381.9365709375C336.25916328125,383.0896709375,342.85028828125,377.4597609375,342.85028828125,370.0841289375L342.85028828125,297.2736239375C342.85028828125,291.3704679375,338.55690728125,286.3440679375,332.72634128125003,285.4211809375L273.79842028125,276.0938215375C266.51348738125,274.9407317375,259.92236328125,280.5706391375,259.92236328125,287.9462659375L259.92236328125,360.7567289375Z" fill="#FF0000" fill-opacity="1"/></g><g><path d="M167,345.77479534375C167,351.67794834375,171.2933731,356.70434534375,177.123938,357.62723534375L236.05186500000002,366.95463734375C243.33679999999998,368.10773734375,249.92792500000002,362.47782734375,249.92792500000002,355.10219534375L249.92792500000002,282.29169034375C249.92792500000002,276.38853434375,245.634544,271.36213434375,239.803978,270.43924734375L180.876057,261.11188794375C173.5911241,259.95879814375,167,265.58870554375,167,272.96433234375L167,345.77479534375Z" fill="#292929" fill-opacity="1"/></g></g><g><g><path d="M369.882242453125,277.4140555C366.870300253125,278.3757865,367.202875153125,282.7407095,370.325755453125,283.2350135L440.065719453125,294.2737925C440.528144453125,294.3469865,441.001274453125,294.3109355,441.44727345312504,294.1685255L486.180034453125,279.8848705C489.191974453125,278.9231265,488.859394453125,274.5582085,485.736504453125,274.0639155L415.996456453125,263.02537505C415.534038453125,262.952183262,415.060909453125,262.988232851,414.614921453125,263.13063958L369.882242453125,277.4140555Z" fill="#FF0000" fill-opacity="1"/></g><g><path d="M276.95963503125,263.4306570625C273.94769283125,264.3923880625,274.28026773125,268.7573110625,277.40314803125,269.2516150625L347.14311203125,280.2903940625C347.60553703125,280.3635880625,348.07866703125,280.3275370625,348.52466603125004,280.1851270625L393.25742703125,265.9014720625C396.26936703125,264.9397280625,395.93678703125,260.5748100625,392.81389703125,260.0805170625L323.07384903125,249.0419766125C322.61143103125,248.9687848245,322.13830203125,249.0048344135,321.69231403125,249.1472411425L276.95963503125,263.4306570625Z" fill="#2F88FF" fill-opacity="1"/></g><g><path d="M184.03678346875,248.44872346875C181.02484126875,249.41045446875,181.35741616875,253.77537746875,184.48029646875,254.26968146875L254.22026046874998,265.30846046875C254.68268546874998,265.38165446875,255.15581546875,265.34560346875,255.60181446875,265.20319346875L300.33457546875,250.91953846875C303.34651546875,249.95779446875,303.01393546875,245.59287646875,299.89104546875,245.09858346875L230.15099746875,234.06004301875C229.68857946875,233.98685123075,229.21545046875,234.02290081975,228.76946246875,234.16530754875L184.03678346875,248.44872346875Z" fill="#292929" fill-opacity="1"/></g><g><path d="M436.82633425,256.439446125C433.81439205,257.401177125,434.14696695,261.766100125,437.26984725,262.260404125L507.00981125,273.299183125C507.47223625,273.372377125,507.94536625,273.336326125,508.39136525000004,273.193916125L553.12412625,258.910261125C556.13606625,257.948517125,555.80348625,253.583599125,552.68059625,253.089306125L482.94054825,242.050765675C482.47813025,241.977573887,482.00500125,242.013623476,481.55901325,242.156030205L436.82633425,256.439446125Z" fill="#292929" fill-opacity="1"/></g><g><path d="M343.903726828125,242.4560476875C340.891784628125,243.4177786875,341.224359528125,247.7827016875,344.347239828125,248.2770056875L414.087203828125,259.3157846875C414.549628828125,259.3889786875,415.022758828125,259.3529276875,415.46875782812504,259.2105176875L460.201518828125,244.9268626875C463.213458828125,243.9651186875,462.880878828125,239.6002006875,459.757988828125,239.1059076875L390.017940828125,228.0673672375C389.555522828125,227.9941754495,389.082393828125,228.0302250385,388.636405828125,228.1726317675L343.903726828125,242.4560476875Z" fill="#292929" fill-opacity="1"/></g><g><path d="M250.98111940625,227.4736258125C247.96917720625,228.4353568125,248.30175210625,232.8002798125,251.42463240625,233.2945838125L321.16459640625,244.3333628125C321.62702140625,244.4065568125,322.10015140625,244.3705058125,322.54615040625004,244.2280958125L367.27891140625,229.9444408125C370.29085140625,228.9826968125,369.95827140625,224.6177788125,366.83538140625,224.1234858125L297.09533340625,213.0849453625C296.63291540625,213.0117535745,296.15978640625,213.0478031635,295.71379840625,213.1902098925L250.98111940625,227.4736258125Z" fill="#292929" fill-opacity="1"/></g><g><path d="M503.7706701875,234.46532503125C500.7587279875,235.42705603125,501.0913028875,239.79197903125,504.2141831875,240.28628303125L573.9541471875,251.32506203125C574.4165721875,251.39825603125,574.8897021875,251.36220503125,575.3357011875,251.21979503125L620.0684621875,236.93614003125C623.0804021875,235.97439603125,622.7478221875,231.60947803125,619.6249321875,231.11518503125L549.8848841875,220.07664458125C549.4224661875,220.00345279325,548.9493371875,220.03950238225,548.5033491875,220.18190911125L503.7706701875,234.46532503125Z" fill="#292929" fill-opacity="1"/></g><g><path d="M410.848062765625,220.48192659375C407.836120565625,221.44365759375,408.168695465625,225.80858059375,411.291575765625,226.30288459375L481.031539765625,237.34166359375C481.493964765625,237.41485759375,481.967094765625,237.37880659375,482.41309376562504,237.23639659375L527.145854765625,222.95274159375C530.157794765625,221.99099759375,529.825214765625,217.62607959375,526.702324765625,217.13178659375L456.962276765625,206.09324614375C456.499858765625,206.02005435575,456.026729765625,206.05610394475,455.580741765625,206.19851067375L410.848062765625,220.48192659375Z" fill="#292929" fill-opacity="1"/></g><g><path d="M317.92545534375,205.499993C314.91351314375,206.461724,315.24608804375,210.826647,318.36896834375,211.320951L388.10893234375,222.35973C388.57135734375,222.432924,389.04448734375,222.396873,389.49048634375004,222.254463L434.22324734375,207.970808C437.23518734375,207.009064,436.90260734375,202.644146,433.77971734375,202.149853L364.03966934375,191.11131255C363.57725134375,191.038120762,363.10412234375,191.074170351,362.65813434375,191.21657708L317.92545534375,205.499993Z" fill="#292929" fill-opacity="1"/></g></g></g></g></svg>