<svg xmlns="http://www.w3.org/2000/svg"
  xmlns:xlink="http://www.w3.org/1999/xlink" fill="none" version="1.1" viewBox="0 0 308 308">
  <ellipse cx="154" cy="154" rx="154" ry="154" fill="#0C0C0C" />
  <g transform="matrix(-1,0,0,1,458.5322265625,0)">
    <path d="M244.91723528125,110.96812775C237.17510458125,108.49702095,229.26730247295,114.27473645,229.26846657625,122.40166625L229.27876222025,194.27843525C229.27951008925,199.49951125,232.65607498125,204.12094925,237.62993808125,205.70851925L270.95872528125,216.34645625000002C278.70086328125,218.81761625000001,286.60870328125,213.03989625,286.60754728125,204.91294825L286.59732828125,133.03603025C286.59658428125,127.81492225,283.21999328125,123.19347025,278.24609728125,121.60591925L244.91723528125,110.96812775Z" fill="#FF0000" />
  </g>
  <path d="M79,198.3358305C79,204.23898350000002,83.2933731,209.2653805,89.123938,210.1882705L148.05186500000002,219.5156725C155.33679999999998,220.6687725,161.92792500000002,215.0388625,161.92792500000002,207.6632305L161.92792500000002,134.8527255C161.92792500000002,128.9495695,157.634544,123.9231695,151.803978,123.0002825L92.876057,113.6729231C85.5911241,112.5198333,79,118.1497407,79,125.5253675L79,198.3358305Z" fill="#2F88FF" />
  <path d="M96.03678346875,100.499993C93.02484126875,101.461724,93.35741616875,105.82664700000001,96.48029646875,106.32095100000001L166.22026046874998,117.35973C166.68268546874998,117.432924,167.15581546875,117.396873,167.60181446875,117.254463L212.33457546875,102.970808C215.34651546875,102.009064,215.01393546875,97.644146,211.89104546875,97.14985300000001L142.15099746875,86.11131255C141.68857946875,86.038120762,141.21545046875,86.074170351,140.76946246875,86.21657708L96.03678346875,100.499993Z" fill="#FFFFFF" />
</svg>
