<svg xmlns="http://www.w3.org/2000/svg"
  xmlns:xlink="http://www.w3.org/1999/xlink" fill="none" version="1.1" viewBox="0 0 300 300">
  <ellipse cx="150" cy="150" rx="150" ry="150" fill="#0C0C0C" />
  <path d="M75,197.76432830322267C75,203.64134230322264,79.2858357,208.64548530322264,85.106165,209.56428530322268L143.93064099999998,218.85038830322264C151.202789,219.99837830322264,157.782341,214.39339830322265,157.782341,207.05043030322264L157.782341,134.56232030322266C157.782341,128.68530230322267,153.496498,123.68115930322266,147.67617,122.76235770322266L88.851697,113.47629912322266C81.5795531,112.32831508322266,75,117.93329380322265,75,125.27626230322265L75,197.76432830322267Z" fill="#FF0000" />
  <path d="M92.00687455509033,100.361695C89.00022011509033,101.319168,89.33221113509033,105.664762,92.44960875509034,106.156879L162.06714315509032,117.14678C162.52876015509034,117.21965,163.00105715509034,117.18376,163.44627115509033,117.041979L208.10051115509032,102.821569C211.10715115509032,101.864083,210.77516115509033,97.518493,207.65775115509035,97.026388L138.04013115509034,86.036724731C137.57852615509034,85.963857017,137.10622915509032,85.99974698597,136.66102315509033,86.14152317L92.00687455509033,100.361695Z" fill="#FFFFFF" />
  <path d="M225.00000042089843,122.1663997935791C225.00116342089842,114.0754541935791,217.10724242089844,108.3233216935791,209.37870442089843,110.7834867235791L176.10835262089844,121.3741747935791C171.14318492089845,122.9546967935791,167.77252561389844,127.5556867935791,167.77177924589844,132.7536757935791L167.76158142089844,204.3123337935791C167.76042378879845,212.4032927935791,175.65438602089844,218.1554327935791,183.38292742089843,215.69521279357912L216.65320542089844,205.10437979357908C221.61833542089843,203.5238357935791,224.98897542089844,198.92286879357908,224.98972342089843,193.72490879357912L225.00000042089843,122.1663997935791Z" fill="#2F88FF" />
</svg>
